<?xml version="1.0" encoding="utf-8"?>
<!-- Generator: Adobe Illustrator 21.1.0, SVG Export Plug-In . SVG Version: 6.00 Build 0)  -->
<svg version="1.1" id="Layer_1" xmlns="http://www.w3.org/2000/svg" xmlns:xlink="http://www.w3.org/1999/xlink" x="0px" y="0px"
	 viewBox="0 0 266.4 186" style="enable-background:new 0 0 266.4 186;" xml:space="preserve">
<style type="text/css">
	.st0{fill:#AB3221;}
	.st1{fill:#B43724;}
	.st2{fill:#A22E1F;}
	.st3{fill:#B03523;}
	.st4{fill:#C84628;}
	.st5{fill:#C24127;}
	.st6{fill:#C34227;}
	.st7{fill:#D04B2C;}
	.st8{fill:#B13A25;}
	.st9{fill:#BD3E28;}
	.st10{fill:#AA3621;}
	.st11{fill:#CB4C2C;}
	.st12{fill:#D5552F;}
	.st13{fill:#DC582F;}
	.st14{fill:#C3422A;}
	.st15{fill:#E16333;}
	.st16{fill:#F8DA6B;}
	.st17{fill:#F6C361;}
	.st18{fill:#E46B34;}
	.st19{fill:#F1B655;}
	.st20{fill:#FBF37A;}
	.st21{fill:#FADF6B;}
	.st22{fill:#F2C861;}
	.st23{fill:#F4CA61;}
	.st24{fill:#FBF072;}
	.st25{fill:#F5DF66;}
	.st26{fill:#FCEE74;}
	.st27{fill:#F9E063;}
	.st28{fill:#F3A652;}
	.st29{fill:#E87E38;}
	.st30{fill:#FDF584;}
	.st31{fill:#E2A50B;}
</style>
<g>
	<path d="M37.9,24.9c0.2,0,0.4,0,0.5,0C38.3,24.9,38.1,24.9,37.9,24.9L37.9,24.9z"/>
	<path d="M266.4,41.3v24.2v26.9v2v2.1v17.2v6.2v2.9v3.1v0.7c-1.3,0.2-2.4,0.4-3.3,0.6c-0.2,1-0.4,1.9-0.6,2.7
		c-0.3,1.3-0.6,2.6-0.8,3.8c-0.6-0.1-1.3-0.2-1.9-0.3c0-1.3,0-2.7,0-4c0-1.6,0-3.2,0-4.7c0-1.1,0-2.2,0-3.3c0-1,0-2,0-3
		c0-2.6,0-5.2,0-7.9c0-7.9,0-15.8,0-23.9c-9.9,0-18.8,0-27.5,0c-1.3-5.7,0-12.4-1.5-17.5c-0.9-3-2.6-5.6-6.4-7.1
		c-0.4-2.5-0.8-4.9-1.2-7.3c-0.5-2.8-0.9-5.6-1.4-8.4c-0.1-0.7-0.2-1.5-0.4-2.2c-0.1,0-0.2,0-0.4,0c-3.7,0-6.9,0-10.3,0
		c-0.8,0-1.7,0-2.6,0c0-1.5,0-3,0-4.4c0-2.2,0-4.5,0-6.7c0-0.6,0-1.2,0-1.8c0-0.7,0-1.5,0-2.2c0-2.6,0-5.1,0-7.7c0-2.5,0-5.1,0-7.6
		c0-1.5,0-3,0-4.5c-0.6,0-1.2,0-1.8,0c0,1.3,0,2.6,0,4c0,2.3,0,4.6,0,7c0,3.1,0,6.3,0,9.4c0,0.7,0,1.5,0,2.2c0,0.7,0,1.3,0,1.9
		c0,2.8,0,5.5,0,8.3c0,0.7,0,1.3,0,2c-1.2,0.1-2.2,0.2-3.2,0.3c-1.7,0.2-3.1,0.3-4.6,0.5c-0.2,2.6-0.3,4.6-0.4,6.9
		c-0.9,0.8-1.9,1.7-2.9,2.7c0,2.8,0,5.4,0,7.9c-1.3,0.5-2.3,1-3.2,1.4c-0.1,2.3-0.2,4.2-0.3,6.2c-0.5,0.2-1,0.5-1.5,0.7
		c-0.8,0.4-1.6,0.8-2.5,1.2c0,0.2,0,0.5,0,0.7c0,1.2,0,2.5,0,3.7c0,0.7,0,1.4,0,2.2c0,1.3,0,2.5,0,3.8c0,1.2,0,2.4,0,3.5
		c0,0.9,0,1.8,0,2.7c0,1.3,0,2.6,0,3.8c0,3.6,0,7.2,0,10.8c0,2,0,4.1,0,6.1c0,2.9,0,5.7,0,8.6c-1.2-0.1-2.2-0.2-3.4-0.3
		c-0.5,0-1-0.1-1.5-0.1c0-1.1,0-2.2,0-3.3c0-5.7,0-11.4,0-17.1c0-1.1,0-2.2,0-3.3c0-2,0-3.9,0-5.9c0-0.5,0-1,0-1.5
		c0-4.9,0-9.7,0-14.6c-1.5-0.7-2.6-1.3-3.6-1.8c0-0.5-0.1-1-0.1-1.4c-0.1-2.2-0.2-4.2-0.3-6.3c0,0,0,0,0,0c-1.2-0.5-2.3-0.9-3.4-1.3
		c-0.3-1.5-0.5-3-0.8-4.3c-1.5-0.3-2.8-0.6-3.8-0.8c-0.5-1.7-0.9-3-1.2-3.9c-1.1,0-2.1,0-3.2,0c-3.7,0-7.2,0-10.9,0
		c-1.7,0-3.4,0-5.2,0c0,4.9,0,9.5,0,14.3c0,0.7,0,1.3,0,2c0,0.9,0,1.8,0,2.8c-3.2,0-6.2,0-9.3,0c-4.4,0-8.8,0-13.5,0
		c0,0.6,0,1.1,0,1.7c0,2.3,0,4.6,0,6.8c0,2.7,0,5.4,0,8.1c0,2,0,3.9,0,5.9c0,3.6,0,7.1,0,10.7c0,3.3,0,6.6,0,9.8
		c-0.5,0-1.1,0-1.6-0.1c0-3.3,0-6.6,0-9.8c0-3.5,0-7,0-10.4c0-2.1,0-4.3,0-6.4c0-2.7,0-5.3,0-8c0-2.2,0-4.4,0-6.6c0-0.8,0-1.7,0-2.5
		c0-0.8,0-1.7,0-2.5c0-1,0-2,0-3.1c0-2.8,0-5.6,0-8.5c-0.8-0.2-1.6-0.4-2.3-0.6c-1.1-0.3-2.1-0.6-3.2-0.9c0-3.4,0-6.8,0-10.2
		c0-2.8,0-5.6,0-8.5c-1.9,0-3.4,0-5.4,0c0,3,0,5.9,0,8.7c0,3.5,0,7,0,10.4c-2.4,0-4.4,0-7,0c0-4.5,0-8.9,0-13.2c0-2.1,0-4.2,0-6.2
		c-3.5,0-6.4,0-10.8,0c-0.1,0-0.3,0-0.4,0c0,9.8,0,19.5,0,29.2c0,1.3,0,2.6,0,3.9c0,3.8,0,7.5,0,11.3c0,6.8,0,13.5,0,20.3
		c0,1.3,0,2.5,0,3.8c0,3.3,0,6.7,0,10c0,2.3,0,4.7,0,7h-10c0-2.3,0-4.7,0-7c0-0.7,0-1.3,0-2c-2.9-0.2-5.3-0.4-7.9-0.6
		c0-2.5,0-5.1,0-7.6c0-1.4,0-2.9,0-4.3c0-0.7,0-1.4,0-2.2c0-5.6,0-11.1,0-16.7c0-0.9,0-1.8,0-2.7c0-1.9,0-3.8,0-5.8
		c0-1.4,0-2.7,0-4.1c0-9.1,0-18.1,0-27.2c-3.5,0-6.5,0-10.1,0c0,2.8,0,5.5,0,8.2c0,5.4,0,10.8,0,16.3c0,0.4,0,0.7,0,1.1
		c-0.4,0-0.8,0.1-1.1,0.1c-2.7,0.2-5.2,0.5-7.9,0.7c0,1.3,0,2.6,0,3.9c0,1,0,2,0,2.9c0,0.9,0,1.8,0,2.7c0,2.1,0,4.2,0,6.3
		c0,1.9,0,3.9,0,5.8c0,0.4,0,0.8,0,1.3c-1.9,0.6-3.4,1.1-5.2,1.6c0,1.9,0,3.8,0,5.7c0,1.5,0,3.1,0,4.6c0,2.5,0,5.1,0,7.7
		c-2.4,0-4.4,0-6.6,0c-0.1-2.2-0.3-4.4-0.4-6.6c-0.1-2.1-0.2-4.3-0.4-6.4c-0.2-3.6-0.4-7.2-0.6-10.7c-0.3,0-0.7,0-1,0
		c0,3.4,0,6.9,0,10.5c0,1.6,0,3.1,0,4.8c-5,0-9.2,0-13.5,0c-0.2,3.2-0.5,5.8-0.7,8.5c-4.5,0.3-8.8,0.5-13.5,0.7c0,5.5,0,10.6,0,15.7
		c-4,0.3-7.4,0.5-11.2,0.7c0,4.9,0,9.2,0,15c0,0,0,0,0,0c0,0-0.1,0-0.1,0c-2.3-0.3-4.5-0.5-6.7-0.8V186h266.4V37.9h0V41.3z
		 M11.9,164.3h-1v-1h1V164.3z M11.9,162.8h-1v-1h1V162.8z M11.9,159.6h-1v-1h1V159.6z M11.9,158.1h-1v-1h1V158.1z M11.9,156.6h-1v-1
		h1V156.6z M11.9,153.5h-1v-1h1V153.5z M11.9,152h-1v-1h1V152z M11.9,150.5h-1v-1h1V150.5z M11.9,149h-1v-1h1V149z M11.9,146h-1v-1
		h1V146z M11.9,144.5h-1v-1h1V144.5z M11.9,141.4h-1v-1h1V141.4z M11.9,138.4h-1v-1h1V138.4z M11.9,136.9h-1v-1h1V136.9z
		 M11.9,133.8h-1v-1h1V133.8z M11.9,130.8h-1v-1h1V130.8z M13.4,162.8h-1v-1h1V162.8z M13.4,159.6h-1v-1h1V159.6z M13.4,156.6h-1v-1
		h1V156.6z M13.4,155.1h-1v-1h1V155.1z M13.4,150.5h-1v-1h1V150.5z M13.4,146h-1v-1h1V146z M13.4,143h-1v-1h1V143z M13.4,141.4h-1
		v-1h1V141.4z M13.4,139.9h-1v-1h1V139.9z M13.4,138.4h-1v-1h1V138.4z M13.4,135.3h-1v-1h1V135.3z M13.4,133.8h-1v-1h1V133.8z
		 M22.5,152.5h-1v-1h1V152.5z M22.5,144.8h-1v-1h1V144.8z M22.5,141.7h-1v-1h1V141.7z M22.5,132.7h-1v-1h1V132.7z M22.5,131.2h-1v-1
		h1V131.2z M22.5,129.6h-1v-1h1V129.6z M22.5,125.1h-1v-1h1V125.1z M22.5,123.5h-1v-1h1V123.5z M22.5,119h-1v-1h1V119z M24,152.5h-1
		v-1h1V152.5z M24,144.8h-1v-1h1V144.8z M24,137.2h-1v-1h1V137.2z M24,135.7h-1v-1h1V135.7z M24,132.7h-1v-1h1V132.7z M24,123.5h-1
		v-1h1V123.5z M27.2,152.5h-1v-1h1V152.5z M27.2,151h-1v-1h1V151z M27.2,147.8h-1v-1h1V147.8z M27.2,143.3h-1v-1h1V143.3z
		 M27.2,138.7h-1v-1h1V138.7z M27.2,137.2h-1v-1h1V137.2z M27.2,134.2h-1v-1h1V134.2z M27.2,129.6h-1v-1h1V129.6z M27.2,128.1h-1v-1
		h1V128.1z M27.2,123.5h-1v-1h1V123.5z M27.2,120.5h-1v-1h1V120.5z M27.2,119h-1v-1h1V119z M28.7,144.8h-1v-1h1V144.8z M28.7,134.2
		h-1v-1h1V134.2z M28.7,132.7h-1v-1h1V132.7z M28.7,126.6h-1v-1h1V126.6z M64.1,104.1h-1v-1h1V104.1z M64.1,96.5h-1v-1h1V96.5z
		 M64.1,93.4h-1v-1h1V93.4z M64.1,84.4h-1v-1h1V84.4z M64.1,82.9h-1v-1h1V82.9z M64.1,81.3h-1v-1h1V81.3z M64.1,76.8h-1v-1h1V76.8z
		 M64.1,75.2h-1v-1h1V75.2z M64.1,70.7h-1v-1h1V70.7z M65.6,104.1h-1v-1h1V104.1z M65.6,96.5h-1v-1h1V96.5z M65.6,88.9h-1v-1h1V88.9
		z M65.6,87.4h-1v-1h1V87.4z M65.6,84.4h-1v-1h1V84.4z M65.6,75.2h-1v-1h1V75.2z M68.8,104.1h-1v-1h1V104.1z M68.8,102.6h-1v-1h1
		V102.6z M68.8,99.5h-1v-1h1V99.5z M68.8,95h-1v-1h1V95z M68.8,90.4h-1v-1h1V90.4z M68.8,88.9h-1v-1h1V88.9z M68.8,85.9h-1v-1h1
		V85.9z M68.8,81.3h-1v-1h1V81.3z M68.8,79.8h-1v-1h1V79.8z M68.8,75.2h-1v-1h1V75.2z M68.8,72.2h-1v-1h1V72.2z M68.8,70.7h-1v-1h1
		V70.7z M70.3,96.5h-1v-1h1V96.5z M70.3,85.9h-1v-1h1V85.9z M70.3,84.4h-1v-1h1V84.4z M70.3,78.3h-1v-1h1V78.3z M100.7,122.2h-1v-1
		h1V122.2z M100.7,120.6h-1v-1h1V120.6z M100.7,116.1h-1v-1h1V116.1z M100.7,112.6h-1v-1h1V112.6z M100.7,105h-1v-1h1V105z
		 M100.7,101.9h-1v-1h1V101.9z M100.7,92.9h-1v-1h1V92.9z M100.7,89.8h-1v-1h1V89.8z M100.7,85.3h-1v-1h1V85.3z M100.7,83.7h-1v-1h1
		V83.7z M100.7,79.2h-1v-1h1V79.2z M100.7,71.4h-1v-1h1V71.4z M100.7,63.7h-1v-1h1V63.7z M100.7,60.7h-1v-1h1V60.7z M100.7,51.7h-1
		v-1h1V51.7z M100.7,50.2h-1v-1h1V50.2z M100.7,48.5h-1v-1h1V48.5z M100.7,44h-1v-1h1V44z M100.7,42.5h-1v-1h1V42.5z M102.2,120.6
		h-1v-1h1V120.6z M102.2,112.6h-1v-1h1V112.6z M102.2,105h-1v-1h1V105z M102.2,97.4h-1v-1h1V97.4z M102.2,95.9h-1v-1h1V95.9z
		 M102.2,92.9h-1v-1h1V92.9z M102.2,83.7h-1v-1h1V83.7z M102.2,71.4h-1v-1h1V71.4z M102.2,63.7h-1v-1h1V63.7z M102.2,56.2h-1v-1h1
		V56.2z M102.2,54.7h-1v-1h1V54.7z M102.2,51.7h-1v-1h1V51.7z M102.2,42.5h-1v-1h1V42.5z M105.4,125.2h-1v-1h1V125.2z M105.4,120.6
		h-1v-1h1V120.6z M105.4,117.6h-1v-1h1V117.6z M105.4,116.1h-1v-1h1V116.1z M105.4,112.6h-1v-1h1V112.6z M105.4,111.1h-1v-1h1V111.1
		z M105.4,108h-1v-1h1V108z M105.4,103.5h-1v-1h1V103.5z M105.4,98.9h-1v-1h1V98.9z M105.4,97.4h-1v-1h1V97.4z M105.4,94.4h-1v-1h1
		V94.4z M105.4,89.8h-1v-1h1V89.8z M105.4,88.3h-1v-1h1V88.3z M105.4,83.7h-1v-1h1V83.7z M105.4,80.7h-1v-1h1V80.7z M105.4,79.2h-1
		v-1h1V79.2z M105.4,69.9h-1v-1h1V69.9z M105.4,66.7h-1v-1h1V66.7z M105.4,62.2h-1v-1h1V62.2z M105.4,57.7h-1v-1h1V57.7z
		 M105.4,56.2h-1v-1h1V56.2z M105.4,53.2h-1v-1h1V53.2z M105.4,48.5h-1v-1h1V48.5z M105.4,47h-1v-1h1V47z M105.4,42.5h-1v-1h1V42.5z
		 M105.4,39.5h-1v-1h1V39.5z M106.9,123.7h-1v-1h1V123.7z M106.9,105h-1v-1h1V105z M106.9,92.9h-1v-1h1V92.9z M106.9,86.8h-1v-1h1
		V86.8z M106.9,63.7h-1v-1h1V63.7z M106.9,53.2h-1v-1h1V53.2z M106.9,51.7h-1v-1h1V51.7z M106.9,45.5h-1v-1h1V45.5z M121.6,95.3h-1
		v-1h1V95.3z M121.6,93.8h-1v-1h1V93.8z M121.6,90.7h-1v-1h1V90.7z M121.6,89.2h-1v-1h1V89.2z M121.6,87.7h-1v-1h1V87.7z
		 M121.6,84.6h-1v-1h1V84.6z M121.6,83.1h-1v-1h1V83.1z M121.6,81.6h-1v-1h1V81.6z M121.6,80.1h-1v-1h1V80.1z M121.6,77.1h-1v-1h1
		V77.1z M121.6,75.6h-1v-1h1V75.6z M121.6,72.5h-1v-1h1V72.5z M121.6,69.5h-1v-1h1V69.5z M121.6,68h-1v-1h1V68z M121.6,64.9h-1v-1h1
		V64.9z M121.6,61.9h-1v-1h1V61.9z M123.1,93.8h-1v-1h1V93.8z M123.1,90.7h-1v-1h1V90.7z M123.1,87.7h-1v-1h1V87.7z M123.1,86.2h-1
		v-1h1V86.2z M123.1,81.6h-1v-1h1V81.6z M123.1,77.1h-1v-1h1V77.1z M123.1,74.1h-1v-1h1V74.1z M123.1,72.5h-1v-1h1V72.5z M123.1,71
		h-1v-1h1V71z M123.1,69.5h-1v-1h1V69.5z M123.1,66.4h-1v-1h1V66.4z M123.1,64.9h-1v-1h1V64.9z M132.8,118.7h-1v-1h1V118.7z
		 M132.8,117.1h-1v-1h1V117.1z M132.8,112.6h-1v-1h1V112.6z M132.8,108.6h-1v-1h1V108.6z M132.8,101h-1v-1h1V101z M132.8,97.9h-1v-1
		h1V97.9z M132.8,88.9h-1v-1h1V88.9z M132.8,87.4h-1v-1h1V87.4z M132.8,85.8h-1v-1h1V85.8z M132.8,81.3h-1v-1h1V81.3z M132.8,79.7
		h-1v-1h1V79.7z M132.8,75.2h-1v-1h1V75.2z M134.3,117.1h-1v-1h1V117.1z M134.3,108.6h-1v-1h1V108.6z M134.3,101h-1v-1h1V101z
		 M134.3,93.4h-1v-1h1V93.4z M134.3,91.9h-1v-1h1V91.9z M134.3,88.9h-1v-1h1V88.9z M134.3,79.7h-1v-1h1V79.7z M137.5,117.1h-1v-1h1
		V117.1z M137.5,114.1h-1v-1h1V114.1z M137.5,112.6h-1v-1h1V112.6z M137.5,108.6h-1v-1h1V108.6z M137.5,107.1h-1v-1h1V107.1z
		 M137.5,104h-1v-1h1V104z M137.5,99.5h-1v-1h1V99.5z M137.5,94.9h-1v-1h1V94.9z M137.5,93.4h-1v-1h1V93.4z M137.5,90.4h-1v-1h1
		V90.4z M137.5,85.8h-1v-1h1V85.8z M137.5,84.3h-1v-1h1V84.3z M137.5,79.7h-1v-1h1V79.7z M137.5,76.7h-1v-1h1V76.7z M137.5,75.2h-1
		v-1h1V75.2z M139,120.2h-1v-1h1V120.2z M139,101h-1v-1h1V101z M139,90.4h-1v-1h1V90.4z M139,88.9h-1v-1h1V88.9z M139,82.8h-1v-1h1
		V82.8z M154.7,89.2h-1v-1h1V89.2z M154.7,87.7h-1v-1h1V87.7z M154.7,84.6h-1v-1h1V84.6z M154.7,83.1h-1v-1h1V83.1z M154.7,81.6h-1
		v-1h1V81.6z M154.7,78.5h-1v-1h1V78.5z M154.7,77h-1v-1h1V77z M154.7,75.5h-1v-1h1V75.5z M154.7,74h-1v-1h1V74z M154.7,71h-1v-1h1
		V71z M154.7,69.5h-1v-1h1V69.5z M154.7,66.4h-1v-1h1V66.4z M154.7,63.4h-1v-1h1V63.4z M154.7,61.9h-1v-1h1V61.9z M154.7,58.8h-1v-1
		h1V58.8z M154.7,55.8h-1v-1h1V55.8z M156.2,87.7h-1v-1h1V87.7z M156.2,84.6h-1v-1h1V84.6z M156.2,81.6h-1v-1h1V81.6z M156.2,80.1
		h-1v-1h1V80.1z M156.2,75.5h-1v-1h1V75.5z M156.2,71h-1v-1h1V71z M156.2,68h-1v-1h1V68z M156.2,66.4h-1v-1h1V66.4z M156.2,64.9h-1
		v-1h1V64.9z M156.2,63.4h-1v-1h1V63.4z M156.2,60.3h-1v-1h1V60.3z M156.2,58.8h-1v-1h1V58.8z M177.1,114.9h-1v-1h1V114.9z
		 M177.1,113.4h-1v-1h1V113.4z M177.1,110.3h-1v-1h1V110.3z M177.1,105.8h-1v-1h1V105.8z M177.1,101.2h-1v-1h1V101.2z M177.1,99.7
		h-1v-1h1V99.7z M177.1,96.7h-1v-1h1V96.7z M177.1,92.1h-1v-1h1V92.1z M177.1,90.6h-1v-1h1V90.6z M177.1,86h-1v-1h1V86z M177.1,83
		h-1v-1h1V83z M177.1,81.5h-1v-1h1V81.5z M178.6,107.3h-1v-1h1V107.3z M178.6,96.7h-1v-1h1V96.7z M178.6,95.2h-1v-1h1V95.2z
		 M178.6,89.1h-1v-1h1V89.1z M193.6,75.3h1v1h-1V75.3z M193.6,78.3h1v1h-1V78.3z M193.6,81.3h1v1h-1V81.3z M193.6,90.5h1v1h-1V90.5z
		 M193.6,93.5h1v1h-1V93.5z M193.6,95h1v1h-1V95z M193.6,98h1v1h-1V98z M193.6,102.5h1v1h-1V102.5z M193.6,105.7h1v1h-1V105.7z
		 M192.1,73.7h1v1h-1V73.7z M192.1,75.3h1v1h-1V75.3z M192.1,78.3h1v1h-1V78.3z M192.1,79.8h1v1h-1V79.8z M192.1,81.3h1v1h-1V81.3z
		 M192.1,82.8h1v1h-1V82.8z M192.1,87.5h1v1h-1V87.5z M192.1,89h1v1h-1V89z M192.1,90.5h1v1h-1V90.5z M192.1,93.5h1v1h-1V93.5z
		 M192.1,96.5h1v1h-1V96.5z M192.1,98h1v1h-1V98z M192.1,99.5h1v1h-1V99.5z M192.1,101h1v1h-1V101z M192.1,102.5h1v1h-1V102.5z
		 M192.1,107.2h1v1h-1V107.2z M193.9,129.8h-1v-1h1V129.8z M193.9,128.3h-1v-1h1V128.3z M193.9,126.7h-1v-1h1V126.7z M193.9,122.2
		h-1v-1h1V122.2z M193.9,120.6h-1v-1h1V120.6z M193.9,116.1h-1v-1h1V116.1z M195.3,132.8h-1v-1h1V132.8z M195.3,129.8h-1v-1h1V129.8
		z M195.3,120.6h-1v-1h1V120.6z M197.4,108.2h-1v-1h1V108.2z M197.4,105.2h-1v-1h1V105.2z M197.4,102.1h-1v-1h1V102.1z M197.4,100.6
		h-1v-1h1V100.6z M197.4,97.5h-1v-1h1V97.5z M197.4,96h-1v-1h1V96z M197.4,94.5h-1v-1h1V94.5z M197.4,91.5h-1v-1h1V91.5z
		 M197.4,88.5h-1v-1h1V88.5z M197.4,87h-1v-1h1V87z M197.4,80.9h-1v-1h1V80.9z M197.4,77.8h-1v-1h1V77.8z M197.4,76.3h-1v-1h1V76.3z
		 M197.4,74.8h-1v-1h1V74.8z M198.5,131.3h-1v-1h1V131.3z M198.5,126.7h-1v-1h1V126.7z M198.5,125.2h-1v-1h1V125.2z M198.5,120.6h-1
		v-1h1V120.6z M198.5,117.6h-1v-1h1V117.6z M198.5,116.1h-1v-1h1V116.1z M198.9,108.2h-1v-1h1V108.2z M198.9,103.6h-1v-1h1V103.6z
		 M198.9,102.1h-1v-1h1V102.1z M198.9,97.5h-1v-1h1V97.5z M198.9,90h-1v-1h1V90z M198.9,85.4h-1v-1h1V85.4z M198.9,79.3h-1v-1h1
		V79.3z M198.9,77.8h-1v-1h1V77.8z M200,131.3h-1v-1h1V131.3z M200,129.8h-1v-1h1V129.8z M200,123.7h-1v-1h1V123.7z M240,97.5h1v1
		h-1V97.5z M240,103.6h1v1h-1V103.6z M240,105.1h1v1h-1V105.1z M238.5,89.9h1v1h-1V89.9z M238.5,91.4h1v1h-1V91.4z M238.5,94.4h1v1
		h-1V94.4z M238.5,99h1v1h-1V99z M238.5,100.5h1v1h-1V100.5z M238.5,105.1h1v1h-1V105.1z M238.5,108.1h1v1h-1V108.1z M238.5,109.6h1
		v1h-1V109.6z M238.5,114.2h1v1h-1V114.2z M238.5,118.7h1v1h-1V118.7z M238.5,121.8h1v1h-1V121.8z M235.3,94.4h1v1h-1V94.4z
		 M235.3,103.6h1v1h-1V103.6z M235.3,106.6h1v1h-1V106.6z M235.3,108.1h1v1h-1V108.1z M235.3,115.7h1v1h-1V115.7z M235.3,123.3h1v1
		h-1V123.3z M233.8,89.9h1v1h-1V89.9z M233.8,94.4h1v1h-1V94.4z M233.8,96h1v1h-1V96z M233.8,100.5h1v1h-1V100.5z M233.8,102.1h1v1
		h-1V102.1z M233.8,103.6h1v1h-1V103.6z M233.8,112.6h1v1h-1V112.6z M233.8,115.7h1v1h-1V115.7z M233.8,123.3h1v1h-1V123.3z
		 M235.4,139.9h-1v-1h1V139.9z M235.4,135.3h-1v-1h1V135.3z M235.4,132.3h-1v-1h1V132.3z M235.4,130.8h-1v-1h1V130.8z M236.8,138.4
		h-1v-1h1V138.4z M236.8,132.3h-1v-1h1V132.3z M238.5,123.3h1v1h-1V123.3z M239.7,150.5h-1v-1h1V150.5z M239.7,147.5h-1v-1h1V147.5z
		 M239.7,144.5h-1v-1h1V144.5z M239.7,143h-1v-1h1V143z M239.7,136.9h-1v-1h1V136.9z M239.7,133.8h-1v-1h1V133.8z M239.7,132.3h-1
		v-1h1V132.3z M239.7,130.8h-1v-1h1V130.8z M240,115.7h1v1h-1V115.7z M241.1,141.4h-1v-1h1V141.4z M241.1,135.3h-1v-1h1V135.3z
		 M241.1,133.8h-1v-1h1V133.8z"/>
	<path d="M116.1,9.5C116.1,9.5,116.1,9.5,116.1,9.5C116.1,9.5,116.1,9.5,116.1,9.5C116.1,9.5,116.1,9.5,116.1,9.5z"/>
	<path d="M224.8,5.6C224.8,5.6,224.8,5.6,224.8,5.6c-0.7-0.1-1.4-0.1-2.1-0.2C223.4,5.5,224.1,5.5,224.8,5.6
		C224.8,5.6,224.8,5.6,224.8,5.6z"/>
	<path d="M248.3,0c0.1,0,0.1,0,0.2,0h4.1h4.4h5.4h4.1v0H248.3z"/>
	<path class="st0" d="M257,0c2,1,3.9,2.1,5.8,3.1c0.8,0.3,1.6,0.5,2.4,0.8c0.4,0,0.8,0,1.2,0V1.4c-1.5-0.2-2.9-0.7-4.1-1.4H257z"/>
	<path class="st0" d="M266.3,17.1c0,0.5,0.1,1.1,0.1,1.6V21c0,0,0,0,0-0.1v-12c-0.7,0.5-1.3,1.1-1.9,1.7
		C265.5,12.6,266.1,14.8,266.3,17.1z"/>
	<path class="st0" d="M266.4,37.9L266.4,37.9l0-6c0,0,0,0,0,0V37.9z"/>
	<path class="st1" d="M262.8,3.1c-3.7-0.2-7-1.5-10.3-3.1h-4.1c1.1,0,2.2,0.2,3.3,0.4c5.2,1.1,9.6,4.5,12.2,9
		c0.2,0.4,0.4,0.8,0.6,1.2c0.7-0.5,1.3-1.1,1.9-1.7V4.7c-0.4-0.2-0.8-0.5-1.2-0.7C264.4,3.7,263.6,3.4,262.8,3.1z"/>
	<path class="st2" d="M266.4,1.4V0h-4.1C263.5,0.7,264.9,1.2,266.4,1.4z"/>
	<path class="st2" d="M266.4,31.9C266.4,31.9,266.4,31.9,266.4,31.9l0-11c0,0,0,0,0,0.1V31.9z"/>
	<path class="st3" d="M257,0h-4.4c3.2,1.6,6.5,2.9,10.3,3.1C260.9,2.1,258.9,1.1,257,0z"/>
	<path class="st3" d="M231.1,30C231.1,30,231.1,30,231.1,30C231.1,30,231.1,30,231.1,30C231.1,30,231.1,30,231.1,30z"/>
	<path class="st3" d="M266.4,4.7V4c-0.4,0-0.8,0-1.2,0C265.6,4.2,266,4.4,266.4,4.7z"/>
	<path class="st4" d="M0.5,15.9c-0.1,0-0.3-0.1-0.4-0.1v3.8c0-0.5,0-0.9,0.1-1.4C0.2,17.4,0.3,16.6,0.5,15.9z"/>
	<path class="st5" d="M2,8C1.3,7.8,0.7,7.5,0,7.3v3.8C0.8,10.1,2.5,9.3,2,8z"/>
	<path class="st5" d="M1.1,13.6c-0.2-0.1-0.4-0.2-0.6-0.3C0.3,13.1,0.1,13,0,12.8v2.4c0.2,0.1,0.3,0.2,0.5,0.3
		C0.7,14.9,0.9,14.2,1.1,13.6z"/>
	<path class="st1" d="M19,0.1c0.2,0,0.5,0,0.7,0h-4c0.3,0.1,0.6,0.2,0.9,0.3C17.3,0.2,18.1,0.1,19,0.1z"/>
	<path class="st2" d="M34,24.4C34,24.4,34,24.4,34,24.4c1.3,0.4,2.6,0.5,3.9,0.4v0C36.6,24.9,35.3,24.8,34,24.4z"/>
	<path class="st6" d="M0.5,15.6c-0.2-0.1-0.3-0.2-0.5-0.3v0.5c0.1,0,0.3,0.1,0.4,0.1C0.5,15.8,0.5,15.7,0.5,15.6z"/>
	<path class="st7" d="M3.4,8.9C5.9,5.2,9.6,2.3,14,1c-0.2-0.3-0.3-0.6-0.4-0.9H0v1.8c0.4,0,0.8,0,1.2,0c1.3,0,2.6-0.4,2.8,1.2
		c0.1,1.5-1.3,2-2.5,2C0.9,5,0.4,4.9,0,5v2.3C0.7,7.5,1.3,7.8,2,8C2.8,8.1,3.2,8.4,3.4,8.9z"/>
	<path class="st6" d="M16.5,0.3C16.3,0.2,16,0.1,15.7,0h-2.1C13.7,0.4,13.8,0.7,14,1C14.8,0.7,15.7,0.5,16.5,0.3z"/>
	<path class="st6" d="M1.1,13.6c0.6-1.7,1.3-3.2,2.3-4.7C3.2,8.4,2.8,8.1,2,8c0.5,1.3-1.2,2.1-2,3.1v1.8c0.1,0.1,0.3,0.3,0.5,0.4
		C0.7,13.4,0.9,13.5,1.1,13.6z"/>
	<path class="st6" d="M1.5,5c1.2,0.1,2.6-0.5,2.5-2C3.8,1.4,2.5,1.9,1.2,1.9c-0.4,0-0.8,0-1.2,0V5C0.4,4.9,0.9,5,1.5,5z"/>
	<path class="st7" d="M144.2,0.7c1,0.3,2.2,0.5,2.3,1.8c0.2,1.6-1.3,1.7-2.2,2.3c-2.8,1.6-5.5,3.5-8.9,3.7c-2.9,0.2-5.5,0.6-8.2-1.3
		c-3.3-2.4-7.7-1.2-11,2.3c0,0,0,0.1,0,0.1c0.8,0,1.6-0.2,2.3,0.1c10.3,4,20.2-0.6,30.3-1.2c3.7-0.2,7.2-0.9,10.8,0.7
		c1.4,0.6,3.1,0.3,4.6,0.5c2.6,0.3,4.9,1,6,3.6c0.9,2.1,0.7,5.1,4.3,4.5c0.2,0,0.8,0.5,0.8,0.7c0,4.8,3.4,4.5,6.6,4.5
		c1.3,0,2.2,0.7,3.1,1.5c0.6,0.6,1.8,0.9,1.5,2c-0.3,1.1-1.4,1.4-2.3,1.9c-4.4,2-8.4,4.6-13.3,5.5c-1.9,0.4-2.1,2.4-0.2,3.5
		c6.9,3.9,7.2,11.1,8.3,17.6c0.4,2.3,0.5,4.7,0,7c0.1,2.1,0.2,4.1,0.3,6.3c4-2.2,3.9-6,4.6-9.7c1-5.8,0.8-11.7,2.9-17.3
		c2.1-5.5,7.9-5.3,11.8-8c2.5-1.7,5.1-3,7.8-3.9c0-3.1,0-6.2,0-9.4c-3.8-2.1-8.4-2.8-10.9-6.9c-0.5-0.9-1.2-1.7-2.3-2
		c-2.6-0.7-2.9-3-4.2-4.8c-1.8-2.6-2.4-4.6-1.8-6.5h-44.9C142.9,0.3,143.5,0.5,144.2,0.7z"/>
	<path class="st7" d="M259.8,129.5c0.9,0.2,1.8,0.3,2.7,0.5c0.2-0.9,0.4-1.8,0.6-2.7c0.9-0.2,2-0.4,3.3-0.6V126
		c-2.2-0.4-4.4-0.8-6.6-1.2C259.8,126.4,259.8,128,259.8,129.5z"/>
	<path class="st7" d="M183,86.2c0,0.5,0,1,0,1.5c2,1.1,3.7,2.4,4.9,4.5c0-1.3,0-2.6,0-3.8C186.4,87.4,184.8,86.7,183,86.2
		C183,86.2,183,86.2,183,86.2z"/>
	<path class="st7" d="M217.5,28.2c1.5,0.1,3-0.7,4.5-1.2c0.8-0.3,1.8-0.7,1.7-1.9c-0.1-0.9-0.9-1.1-1.7-1.5
		c-2.1-0.9-4.4-0.8-6.6-0.8c-2.5,0-5,0.1-7.1-1.6c0,0,0,0-0.1,0c0,2.6,0,5.1,0,7.7C211.2,28.3,214.2,28,217.5,28.2z"/>
	<path class="st8" d="M254.9,67.2c-1.9,1.2-5.3-0.1-8.1-0.2c-0.6,0-1.2-0.4-1.1-0.9c0.1-0.5,0.7-1.3,1.2-1.4
		c4.7-0.6,7.7-5.6,12.9-4.9c0.4,0,0.8-0.1,1.1-0.3c1.2-0.7,3.4-0.8,3.2-2.4c-0.2-1.7-2.3-1.8-3.9-1.9c-5-0.2-9.8-0.5-13.6,4.2
		c-2,2.4-5.6,3.1-8.7,4.1c-0.3,1.2,0.6,1.3,1.2,1.8c1,0.7,3.1,0.8,2.9,2.2c-0.2,1.8-2.5,1.7-3.6,1.6c-2.6-0.3-5.2,0.1-7.8,0.2
		c1.5,5.2,0.2,11.8,1.5,17.5c8.7,0,17.6,0,27.5,0c0,8.1,0,16,0,23.9c2.2,1,4.4,2.1,6.6,3.1c0,0,0,0,0.1,0V96.6
		c-0.6-0.1-1.3-0.2-1.9-0.3c-0.8-0.2-2-0.1-2-1.4c0-0.9,0.8-1.3,1.6-1.6c0.8-0.3,1.5-0.5,2.3-0.8V65.6
		C262.6,65.6,258.7,64.9,254.9,67.2z M238.7,78c-1.4-0.1-2.1-0.9-1.6-2.5c1-0.9-1-3.3,1-3.3c2.1-0.1,2.6,2.3,2.9,4
		C241.2,77.7,240,78.1,238.7,78z"/>
	<path class="st9" d="M215.3,34.4c5.2-2,10.5-3,15.8-4.4c0,0,0,0,0,0c-2.9,0-5.8,0-8.6,0c-1.9-0.2-3.7,0.3-5.5,0.8
		c-1.3,1.1-2.8,1.5-4.4,1.5c-1.5,0.1-3,0.3-4.4,0.7c0,2.2,0,4.4,0,6.7C209.9,37.1,212,35.6,215.3,34.4z"/>
	<path class="st9" d="M200.1,40.1c-0.3,0.6-1.1,1-1.7,1.5c-3.3,2.6-4.5,6-4,10c0.1,1,0.6,2-0.2,3c-1.7,2.3-2.5,4.8-2.7,7.7
		c-0.2,2-1.9,3.3-3.3,4.8c-1.4,1.5-1.1,2.6,0.8,3.1c0.4,0.1,0.9,0.2,1.3,0.3c0.5-0.2,1-0.5,1.5-0.7c0.1-2.1,0.2-4,0.3-6.2
		c0.9-0.4,1.9-0.8,3.2-1.4c0-2.5,0-5.1,0-7.9c1.1-1,2-1.9,2.9-2.7c0.1-2.2,0.3-4.3,0.4-6.9c1.5-0.1,2.9-0.3,4.6-0.5
		c0.5-0.5,1-1,1.8-1.3c0.6-0.3,1-0.6,1.4-1c0-2.7,0-5.5,0-8.3C203.7,34.8,201.5,36.8,200.1,40.1z"/>
	<path class="st9" d="M259.8,110.6c0,2.6,0,5.3,0,7.9c2.2,0.4,4.4,0.9,6.6,1.5v-6.2c0,0,0,0-0.1,0
		C264.1,112.7,261.9,111.7,259.8,110.6z"/>
	<path class="st4" d="M216.9,30.8c1.8-0.5,3.6-1,5.5-0.8c0.3-0.3,0.5-0.5,0.8-0.8c1.4-1.3,3.5-2.2,3.2-4.7c-0.5-0.5-1.1-1.1-1.6-1.6
		c-3.7-1.1-7.6-0.3-11.4-1c-0.7,0-1.4-0.1-2-0.6v0c-1.1,0-2.1,0-3.2,0h0c2.1,1.7,4.6,1.6,7.1,1.6c2.2,0,4.5-0.2,6.6,0.8
		c0.7,0.3,1.6,0.5,1.7,1.5c0.1,1.2-0.8,1.6-1.7,1.9c-1.5,0.5-3,1.3-4.5,1.2c-3.2-0.2-6.3,0-9.2,0.8c0,0.7,0,1.5,0,2.2
		C211,30.6,213.9,30.5,216.9,30.8z"/>
	<path class="st4" d="M186.8,41.4c-2.1,5.6-2,11.5-2.9,17.3c-0.6,3.7-0.6,7.5-4.6,9.7c0,0.5,0.1,0.9,0.1,1.4c1,0.5,2.1,1.1,3.6,1.8
		c0,4.9,0,9.7,0,14.6c0,0,0,0,0,0c1.8,0.4,3.4,1.2,4.8,2.1c0-0.9,0-1.8,0-2.7c-1.2,0.2-2.4,0.2-2.6-1.3c-0.3-1.6,1.2-2.1,2.6-2.3
		c0-1.3,0-2.5,0-3.8c-0.7-0.5-0.8-1.2,0-2.2c0-1.2,0-2.5,0-3.7c-0.4-0.2-0.9-0.5-1.4-0.7c-4-1.8-4.2-2.2-1.1-4.9
		c4.2-3.7,4.2-8.9,4.3-13.4c0.1-8.7,4.1-14.2,10.9-18.8c1.9-1.3,3.9-2.3,5.9-2.9c0-0.7,0-1.5,0-2.2c-2.7,0.9-5.3,2.1-7.8,3.9
		C194.7,36.1,188.9,35.9,186.8,41.4z"/>
	<path class="st4" d="M259.8,124.8c2.2,0.4,4.4,0.8,6.6,1.2v-3.1c-2.2-0.4-4.4-0.9-6.6-1.4C259.8,122.6,259.8,123.7,259.8,124.8z"/>
	<path class="st6" d="M259.8,121.5c2.2,0.5,4.4,1,6.6,1.4V120c-2.2-0.5-4.4-1.1-6.6-1.5C259.8,119.5,259.8,120.5,259.8,121.5z"/>
	<path class="st6" d="M216.9,30.8c-3-0.3-5.9-0.2-8.7,0.4c0,0.6,0,1.2,0,1.8c1.4-0.4,2.8-0.6,4.4-0.7
		C214.1,32.3,215.7,31.9,216.9,30.8z"/>
	<path class="st6" d="M189.6,53.4c-0.1,4.4-0.1,9.7-4.3,13.4c-3.1,2.7-2.9,3.1,1.1,4.9c0.5,0.2,1,0.5,1.4,0.7c0-0.2,0-0.5,0-0.7
		c0.9-0.4,1.7-0.8,2.5-1.2c-0.4-0.1-0.9-0.2-1.3-0.3c-1.9-0.5-2.2-1.7-0.8-3.1c1.4-1.4,3.1-2.7,3.3-4.8c0.2-2.8,1-5.4,2.7-7.7
		c0.7-1,0.3-1.9,0.2-3c-0.4-4,0.8-7.4,4-10c0.6-0.5,1.4-0.9,1.7-1.5c1.4-3.3,3.6-5.3,6.3-6.5c0-0.7,0-1.3,0-1.9
		c-2,0.6-4,1.6-5.9,2.9C193.8,39.2,189.8,44.7,189.6,53.4z"/>
	<path class="st6" d="M185.2,84.3c0.2,1.4,1.4,1.4,2.6,1.3c0-1.2,0-2.4,0-3.5C186.4,82.3,184.9,82.7,185.2,84.3z"/>
	<path class="st6" d="M187.8,78.3c0-0.7,0-1.4,0-2.2C187.1,77.1,187.2,77.8,187.8,78.3z"/>
	<path class="st10" d="M262.5,94.9c-0.1,1.3,1.1,1.2,2,1.4c0.6,0.1,1.3,0.2,1.9,0.3v-2.1v-2c-0.8,0.3-1.6,0.5-2.3,0.8
		C263.3,93.6,262.5,94,262.5,94.9z"/>
	<path class="st11" d="M73.5,2.8c2.9,0.8,5.7,0,8.5-0.4c1.5-0.3,1.7-1.3,1.7-2.4H59.5C64.2,0.7,68.9,1.5,73.5,2.8z"/>
	<path class="st11" d="M8.1,19.2c1.1-1.5,3-1.5,4.7-1.7c3.6-0.3,6.5-1.9,9.1-4.1c2.5-2,5.5-2.9,8.4-4.1c3.7-1.5,5.5-5.1,4.5-9
		c0-0.1,0-0.2-0.1-0.3H20c-0.1,0-0.2,0-0.4,0c-0.2,0-0.5,0-0.7,0c-2.6,2.2-4.8,4.9-7,7.4c-1.1,1.3-2.1,2.7-4,3
		c-0.5,0.1-1.1,0.3-1.4,0.6c-2,2.6-4.2,4.9-6.5,7.2C0,18.7,0,19.1,0,19.6c0,0.1,0,0.3,0,0.4v9.7C2.6,26.1,5.5,22.8,8.1,19.2z"/>
	<path class="st11" d="M92.4,2.4c3.7,3.2,7.9,5,12.9,4.7c2.6-0.1,5,0.5,7.1,1.8c1.2,0.8,2.4,0.9,3.7,0.6c0,0,0.1-0.1,0.1-0.1
		c3.3-3.5,7.7-4.7,11-2.3c2.7,2,5.4,1.5,8.2,1.3c3.4-0.2,6.1-2.1,8.9-3.7c1-0.6,2.4-0.7,2.2-2.3c-0.2-1.3-1.3-1.5-2.3-1.8
		c-0.7-0.2-1.3-0.4-1.9-0.7h-19c-4,0.9-7.9,1.4-12,0.2c-1.7-0.5-3.8,0.5-5.7,0.9c-2.9,0.6-5,0.3-6.5-1.1h-8.6
		C91.2,0.7,91.9,1.6,92.4,2.4z"/>
	<path class="st12" d="M21.4,23.9c9-4.9,18.9-8.4,28.9-11.1c5.9-1.6,11.8-3.8,18.1-3.2c6.8,0.7,13.4,0.5,20.1-1.4
		c2.7-0.8,5.8-0.6,8.7,1.2c2.4,1.5,5.3,2.3,8.3,1.3c2-0.6,3.6,0.2,5.5,1c7,3,14.2,5.3,21.9,4.4c1.5-0.2,2.9-0.3,4.2,0.4
		c0.1,0.1,0.3,0.2,0.4,0.2c5.6-1.7,10.6,2.4,16.1,1.5c4.2-0.7,5.2,0.4,4.1,4.4c-0.3,1-0.3,1.8,0.2,2.6c2.1,3.2-0.1,3.9-2.5,3.9
		c-2.8,0-5.4,0.7-8.2,0.9c-0.8,0.1-1.7,0.1-2,0.9c-0.3,0.9,0.5,1.4,1,1.9c2.6,2.8,6.1,4.8,9.3,6.5c5.4,2.9,8.4,7.3,11.2,12.2
		c1.1,0,2.1,0,3.2,0c0.3,0.9,0.7,2.3,1.2,3.9c1.1,0.2,2.3,0.5,3.8,0.8c0.2,1.4,0.5,2.8,0.8,4.3c1.1,0.4,2.2,0.8,3.4,1.3c0,0,0,0,0,0
		c0.5-2.3,0.4-4.7,0-7c-1.1-6.5-1.4-13.6-8.3-17.6c-1.9-1.1-1.7-3.2,0.2-3.5c4.9-0.9,9-3.5,13.3-5.5c1-0.5,2-0.8,2.3-1.9
		c0.4-1.2-0.9-1.4-1.5-2c-0.8-0.9-1.8-1.5-3.1-1.5c-3.2,0-6.6,0.3-6.6-4.5c0-0.3-0.6-0.8-0.8-0.7c-3.7,0.6-3.5-2.4-4.3-4.5
		c-1.1-2.7-3.4-3.4-6-3.6c-1.6-0.2-3.3,0.1-4.6-0.5c-3.6-1.5-7.1-0.9-10.8-0.7c-10.1,0.6-20,5.2-30.3,1.2c-0.7-0.3-1.5-0.1-2.3-0.1
		c0,0,0,0-0.1,0c-1.3,0.3-2.4,0.2-3.7-0.6c-2.1-1.3-4.5-1.9-7.1-1.8c-5,0.3-9.2-1.6-12.9-4.7c-0.7-0.3-1.6-0.5-2.1-1
		c-0.6-0.6-1.1-1.1-1.6-1.5h-2.2c-0.4,0.4-0.8,1-1.2,2c-0.8,2-3.3,1.6-5.2,2.1c-3.9,1-7.8,1.1-11.5-0.6C61.1,0.2,53,0.6,45.1,0.1
		c-2.2-0.2-3.9,0.5-4.8,2.6c-3.6,7.9-11.1,10.8-18.4,13.6C15.5,18.8,8.8,20.9,4.5,27c-1.5,2.1-3,4.3-4.5,6.4v7.7
		C5.8,33.6,13.3,28.2,21.4,23.9z"/>
	<path class="st13" d="M183,96.9c1.7,4,3.1,8.2,4.9,12.2c0-2,0-4.1,0-6.1c-1.8-3.1-3.3-6.2-4.9-9.4C183,94.7,183,95.8,183,96.9z"/>
	<path class="st12" d="M259.8,133.5c0.6,0.1,1.3,0.2,1.9,0.3c0.3-1.2,0.5-2.5,0.8-3.8c-0.9-0.2-1.8-0.3-2.7-0.5
		C259.8,130.9,259.8,132.2,259.8,133.5z"/>
	<path class="st12" d="M183,87.7c0,2,0,3.9,0,5.9c1.6,3.2,3.1,6.3,4.9,9.4c0-3.6,0-7.2,0-10.8C186.7,90.1,185,88.8,183,87.7z"/>
	<path class="st5" d="M200.7,3.7c0.8,0.2,1.6,0.3,2.3,0.5c0.7,0.3,1.6,0.5,1.6,1.4c0,0.8-0.6,1.2-1.2,1.3c-1.7,0.5-2.9,1.7-2.7,3.4
		c0.2,1.8,2.2,1.6,3.5,2.1c0.7,0.3,1.4,0.5,2.2,0.7c0-1.3,0-2.6,0-4c0.6,0,1.2,0,1.8,0c0,1.5,0,3,0,4.5c0.8,0.2,1.6,0.5,2.4,0.8
		c1.4,0.5,2.4,1.9,0.5,2.8c-4.1,1.9-1.7,2.9,0.3,4.1v0c1.1-0.1,2.5,0.2,3.4-0.3c4-2.3,6.9-0.1,10,1.9c0.5,0.5,1.1,1.1,1.6,1.6
		c1.9,3.8,1.8,3.9-3.2,4.7c-0.3,0.3-0.5,0.5-0.8,0.8c2.9,0,5.8,0,8.6,0c0,0,0,0,0,0c0.3,0,0.5,0,0.8,0c-2.6-2.2-1.3-3.5,1.1-4.4
		c1.3-0.5,3.1-0.8,2.5-2.8c-0.5-1.6-2.1-2.2-3.8-2c-0.4,0-0.8,0.3-1.1,0.3c-2.2-0.2-4.9,0.3-6.5-0.9c-2.9-2.2,2.2-3,1.5-5.2
		c-0.8-0.3-1.6-0.5-2.4-0.8l0,0l0,0c-3.2-1.1-6.8-1.4-7.9-5.5c-1.3-0.2-3.4,0.4-3.4-1.5c0-2.1,2.1-2.4,3.8-2.4c0.8,0,1.5,0,2.3,0.1
		c1.5,0.1,2.9,0.2,4.4,0.4c0.1,0,0.3,0,0.4,0c0.7,0.1,1.4,0.1,2.1,0.2c0,0,0,0,0,0c0,0,0,0,0,0c0-0.1,0-0.3,0-0.4
		c0-0.3,0-0.5,0.1-0.8s0.1-0.5,0.3-0.6c0.2-0.3,0.6-0.4,1.2-0.4c3.6,0.2,6.3-0.3,7.7-3.4H197C197,1.6,198.3,3,200.7,3.7z"/>
	<path class="st5" d="M211.4,21.3c0.6,0.4,1.3,0.6,2,0.6C212.8,21.8,212.1,21.6,211.4,21.3z"/>
	<path class="st6" d="M208.3,21.3c1.1,0,2.1,0,3.2,0c-2.1-1.2-4.4-2.2-0.3-4.1c1.9-0.9,0.9-2.3-0.5-2.8c-0.8-0.3-1.6-0.5-2.4-0.8
		C208.2,16.2,208.2,18.8,208.3,21.3C208.2,21.3,208.2,21.3,208.3,21.3L208.3,21.3z"/>
	<path class="st6" d="M189,6.5c1.3,1.8,1.5,4.1,4.2,4.8c1.1,0.3,1.8,1.1,2.3,2c2.5,4.1,7.1,4.8,10.9,6.9c0-2.3,0-4.6,0-7
		c-0.7-0.2-1.5-0.4-2.2-0.7c-1.3-0.5-3.2-0.3-3.5-2.1c-0.2-1.7,0.9-2.9,2.7-3.4c0.6-0.2,1.3-0.6,1.2-1.3c0-1-0.9-1.2-1.6-1.4
		c-0.7-0.3-1.5-0.3-2.3-0.5C198.3,3,197,1.6,197,0h-9.8C186.7,1.9,187.2,3.9,189,6.5z"/>
	<path class="st0" d="M244.8,3.3c-0.3,1,1.4,1.3,2.3,1.7c3.3,1.7,6.6,3.5,10,5.3c0.8,0.3,1.6,0.5,2.4,0.8c1.4,0.1,3-0.3,3.7,1.4
		c0.5,1.2-0.3,1.9-1.3,2.5c-1.9,1.2-3.2,3.2-5.5,3.9c-0.4,1.5-0.6,2.9,0.5,4.4c1.7,2.3,0.5,4-1.9,4.1c-4.9,0.3-8.1,2.7-11,6.5
		c-4.3,5.8-11.3,6.2-17.7,6.9c-2.6,0.3-3.7,1.9-5.2,3.2c0.1,0,0.2,0,0.4,0c0.1,0.8,0.2,1.5,0.4,2.2c3.3,0.1,6.9,1.4,9.1-2.5
		c0.6-1.1,1.5-1.2,2.7-0.8c5.4,2.2,11,1.5,16.6,0.6c4.6-0.7,6.6,0.2,8.6,4.2c0.8,1.6,0,2.3-1.2,2.7c-2.2,0.8-4.5,2.2-6.7,2.1
		c-8.2-0.3-16.2,1.2-24.2,1.7c-1.2,0.1-2.3,0.2-3.5,0.4c0.4,2.4,0.8,4.9,1.2,7.3c3.8,1.6,5.6,4.1,6.4,7.1c2.6-0.1,5.2-0.5,7.8-0.2
		c1.1,0.1,3.4,0.2,3.6-1.6c0.2-1.4-1.9-1.5-2.9-2.2c-0.6-0.4-1.6-0.6-1.2-1.8c3.1-1,6.7-1.7,8.7-4.1c3.8-4.6,8.6-4.3,13.6-4.2
		c1.6,0.1,3.7,0.2,3.9,1.9c0.2,1.5-2,1.6-3.2,2.4c-0.3,0.2-0.8,0.4-1.1,0.3c-5.2-0.7-8.2,4.3-12.9,4.9c-0.5,0.1-1,0.8-1.2,1.4
		c-0.1,0.5,0.5,0.8,1.1,0.9c2.7,0.2,6.1,1.4,8.1,0.2c3.8-2.3,7.6-1.7,11.4-1.7V41.3c-2.7-1.3-5.3-2.6-7.9-4.2
		c-4.1-2.6-4.1-5.6,0.1-7.9c3.3-1.7,3.3-4.9,4.1-7.6c0.7-2.2,1.8-3.7,3.6-4.5c-0.2-2.3-0.8-4.6-1.8-6.6c-0.2-0.4-0.4-0.8-0.6-1.2
		C263,9.1,262,8.8,261,8.7c-4.9-0.6-8.4-4.1-9.3-8.2c-1.1-0.2-2.1-0.4-3.3-0.4c-0.1,0-0.1,0-0.2,0c-0.2,0-0.4,0-0.6,0h-2.4
		C245.2,1.1,245.2,2.2,244.8,3.3z"/>
	<path class="st1" d="M226.4,3.4c-0.6,0-1,0.1-1.2,0.4c-0.1,0.2-0.2,0.4-0.3,0.6s-0.1,0.5-0.1,0.8c0,0.1,0,0.3,0,0.4c0,0,0,0,0,0
		c1.8,0.6,3.7-0.1,5.5,0l0,0l0,0c1.9-0.2,3.7,0.3,5.5,0.8c0.3,0,0.5,0,0.8,0v0c6,2.4,12.3,4.1,16.8,9.2c0.2,0.3,0.6,0.6,0.7,0.9
		c0.5,4.3-5.7,10.1-10.4,9.3c-2-0.3-3-0.1-4.3,1.5c-1.8,2.2-4.6,2.9-7.5,2.7l0,0c-0.3,0-0.5,0-0.8,0c0,0,0,0,0,0
		c-5.3,1.4-10.6,2.4-15.8,4.4c-3.2,1.2-5.4,2.7-7.1,5.3c0,1.5,0,2.9,0,4.4c0.9,0,1.7,0,2.6,0c5.2-2.3,9.2-6.6,15-8.5
		c7.5-2.4,15.3-4.2,22.4-7.9c0.5-0.2,0.9-0.6,1.4-0.6c3.9-0.2,7.7-0.3,5.2-6.1c-0.4-0.8,0.6-1.6,1.5-2.1c2.3-0.7,3.6-2.8,5.5-3.9
		c1.1-2.5-0.9-3-2.4-3.9c-0.8-0.3-1.6-0.5-2.4-0.8c-4.9-0.2-9.1-2.6-13.4-4.8c-1.2-0.6-1.6-1.6-1.6-2.9c0-0.9,0-1.8,0-2.7h-8.1
		C232.7,3.1,230,3.7,226.4,3.4z"/>
	<path class="st1" d="M203.2,44.2c1-0.1,2-0.2,3.2-0.3c0-0.7,0-1.3,0-2c-0.4,0.4-0.9,0.7-1.4,1C204.3,43.3,203.7,43.7,203.2,44.2z"
		/>
	<path class="st9" d="M238.1,72.1c-1.9,0.1,0,2.5-1,3.3c-0.5,1.6,0.2,2.4,1.6,2.5c1.3,0.1,2.5-0.3,2.3-1.9
		C240.7,74.4,240.2,72,238.1,72.1z"/>
	<path class="st2" d="M261,8.7c1,0.1,2,0.4,2.9,0.7c-2.6-4.5-7-7.8-12.2-9C252.6,4.6,256.1,8.1,261,8.7z"/>
	<path class="st2" d="M262.7,21.7c-0.8,2.7-0.8,5.9-4.1,7.6c-4.3,2.3-4.3,5.3-0.1,7.9c2.5,1.6,5.2,2.9,7.9,4.2v-3.4v-6V21v-2.2
		c0-0.5,0-1.1-0.1-1.6C264.5,18,263.4,19.5,262.7,21.7z"/>
	<path class="st6" d="M224.8,22.9c-3.1-2.1-6-4.2-10-1.9c-0.9,0.5-2.2,0.3-3.4,0.3c0.7,0.2,1.3,0.4,2,0.6
		C217.2,22.6,221.1,21.8,224.8,22.9z"/>
	<path class="st6" d="M223.2,29.2c5-0.8,5.1-0.9,3.2-4.7C226.7,27,224.6,27.9,223.2,29.2z"/>
	<path class="st14" d="M14,1c-4.4,1.4-8.1,4.2-10.6,8c-1,1.4-1.7,3-2.3,4.7c-0.2,0.6-0.4,1.3-0.6,2c0,0.1,0,0.2-0.1,0.3
		c-0.2,0.8-0.3,1.6-0.4,2.4c2.3-2.3,4.5-4.7,6.5-7.2c0.3-0.4,0.9-0.6,1.4-0.6c1.9-0.3,2.8-1.7,4-3c2.3-2.5,4.5-5.2,7-7.4
		c-0.8,0-1.6,0.2-2.4,0.3C15.7,0.5,14.8,0.7,14,1z"/>
	<path class="st14" d="M105.5,1.1c1.9-0.4,4.1-1.4,5.7-0.9c4.1,1.2,8,0.7,12-0.2H99.1C100.5,1.4,102.7,1.7,105.5,1.1z"/>
	<path class="st7" d="M4.5,27c4.3-6,11-8.1,17.4-10.6c7.3-2.9,14.8-5.7,18.4-13.6c0.9-2.1,2.6-2.8,4.8-2.6c7.9,0.6,16,0.1,23.5,3.5
		c3.7,1.7,7.6,1.7,11.5,0.6C82,3.7,84.6,4,85.4,2c0.4-1,0.8-1.6,1.2-2h-2.8c-0.1,1.2-0.2,2.2-1.7,2.4c-2.8,0.5-5.6,1.3-8.5,0.4
		c-4.6-1.3-9.3-2.1-14-2.8H34.8c0,0.1,0,0.2,0.1,0.3c1,3.9-0.8,7.5-4.5,9c-2.9,1.2-5.9,2.1-8.4,4.1c-2.7,2.2-5.6,3.8-9.1,4.1
		c-1.6,0.1-3.6,0.2-4.7,1.7C5.5,22.8,2.6,26.1,0,29.7v3.7C1.5,31.2,3,29.1,4.5,27z"/>
	<path class="st7" d="M90.3,1.5c0.5,0.5,1.4,0.7,2.1,1c-0.6-0.9-1.2-1.7-1.9-2.4h-1.8C89.2,0.3,89.8,0.9,90.3,1.5z"/>
	<path class="st15" d="M18.3,32.4c4.8-3.4,10.3-5.6,15.7-7.9c0,0,0,0,0,0c8.1-4.2,16.9-6.2,25.8-7.7c7.4-1.2,14.9-1.2,22.3-0.8l0,0
		c12.1,0.3,23.6,3.4,34.7,7.8c9.2,3.7,17.7,8.4,25.2,15c4.1,2.4,7,6.1,10.3,9.4c1.2,1.1,2.3,2.3,3.4,3.5c3.7,0,7.2,0,10.9,0
		c-2.8-4.9-5.8-9.3-11.2-12.2c-3.2-1.7-6.7-3.7-9.3-6.5c-0.5-0.6-1.3-1.1-1-1.9c0.3-0.9,1.2-0.9,2-0.9c2.7-0.2,5.4-0.9,8.2-0.9
		c2.4,0,4.6-0.7,2.5-3.9c-0.5-0.8-0.5-1.6-0.2-2.6c1.1-4,0.1-5.1-4.1-4.4c-5.5,0.9-10.5-3.2-16.1-1.5c-0.1,0-0.2-0.1-0.4-0.2
		c-1.3-0.7-2.7-0.6-4.2-0.4c-7.8,0.8-15-1.5-21.9-4.4c-1.9-0.8-3.5-1.7-5.5-1c-3,1-5.9,0.2-8.3-1.3c-2.9-1.8-6-2-8.7-1.2
		c-6.7,1.9-13.3,2.1-20.1,1.4c-6.3-0.7-12.2,1.6-18.1,3.2c-10,2.7-19.8,6.3-28.9,11.1C13.3,28.2,5.8,33.6,0,41.1v6
		C5.4,41.5,11.5,36.6,18.3,32.4z"/>
	<path class="st16" d="M6.9,141.5c0-5.7,0-10.1,0-15c3.8-0.2,7.2-0.5,11.2-0.7c0-5.1,0-10.2,0-15.7c4.8-0.3,9-0.5,13.5-0.7
		c0.2-2.7,0.4-5.3,0.7-8.5c4.3,0,8.5,0,13.5,0c0-1.6,0-3.2,0-4.8c-1.2-0.2-2.4-0.4-3.7-0.6c-3.2-0.6-6-1.6-6.4-5.3
		c-0.4-3.6,2.6-4.4,5-6.1c5.9-4.1,12.6-6.1,19.3-7.8c0-0.9,0-1.8,0-2.7c-4.8,1.5-9.6,2.9-14.5,4.1c-10.1,2.6-19.4,7.7-26.5,15.8
		c-2.2,2.6-4.7,3.6-8.2,3.5C6.9,97,3.3,96.2,0,94.8v8c2.2,1.9,5.2,2.9,6.3,6.2c0.9,2.7,0.9,4.5-2,5.7c-2.8,1.1-2.3,2.3-0.1,3.6
		c1.3,0.8,2.9,1.1,4.3,2.8c-2.5,0.3-4,1.7-4.9,3.9c-0.6,1.5-1.8,2.4-3.4,3c0,0-0.1,0-0.1,0v12.8c0,0,0,0,0,0
		c2.2,0.3,4.4,0.5,6.7,0.8C6.8,141.5,6.8,141.5,6.9,141.5z"/>
	<path class="st16" d="M140,67.9c-4.7,0-9.3-0.2-13.9-0.6c0,0.8,0,1.7,0,2.5c2.6,0.1,5.1,0.3,7.7,0.5c2.5,0.2,5,0.3,7.5,0.4
		c3.1,0,6.1,0,9.3,0c0-1,0-1.9,0-2.8C147,67.8,143.5,67.9,140,67.9z"/>
	<path class="st16" d="M79.2,67.7c0,1.4,0,2.7,0,4.1c5.2-1.3,10.6-2.1,15.9-3.2c0.7-0.1,1.4-0.2,2-0.3c0-1.3,0-2.6,0-3.9
		c-4.5,0-9.1,0.6-13.8,2C82,66.8,80.6,67.2,79.2,67.7z"/>
	<path class="st16" d="M126.1,93.4c0.5-0.1,1.1-0.1,1.6-0.2c0-2,0-3.9,0-5.9c-0.5-0.1-1.1-0.3-1.6-0.4
		C126.1,89.1,126.1,91.2,126.1,93.4z"/>
	<path class="st16" d="M47.9,102.7c1.9-0.4,3.9-0.7,6-1c0.3,0,0.7-0.1,1-0.1c0-1.5,0-3.1,0-4.6c-2.5-0.1-4.9-0.3-7.4-0.6
		C47.6,98.4,47.7,100.5,47.9,102.7z"/>
	<path class="st16" d="M84.5,85c-0.8,0.7-0.6,1.5,0,2.4c2.8,4.5,0.4,9.4-5.1,9.4c-0.1,0-0.2,0-0.2,0c0,0.7,0,1.4,0,2.2
		c1.4-0.1,2.8-0.2,4.2-0.3c4.1-0.3,8.1,0.2,12.1,0.9c0.6,0.1,1.1,0.2,1.7,0.2c0-6.8,0-13.5,0-20.3c-0.4,0-0.9,0-1.3,0
		C90.9,79.5,87.9,82.4,84.5,85z"/>
	<path class="st17" d="M126.1,86.9c0.5,0.1,1.1,0.3,1.6,0.4c0-2.7,0-5.4,0-8.1c-0.5-0.1-1.1-0.2-1.6-0.3
		C126.1,81.6,126.1,84.3,126.1,86.9z"/>
	<path class="st17" d="M79.2,71.7c0,1.9,0,3.8,0,5.8c0.6,0.9,0.4,1.9,0,2.7c0,5.5,0,11.1,0,16.7c0.1,0,0.2,0,0.2,0
		c5.4,0,7.8-4.9,5.1-9.4c-0.6-0.9-0.8-1.8,0-2.4c3.4-2.6,6.4-5.6,11.3-5.5c0.4,0,0.9,0,1.3,0c0-3.8,0-7.5,0-11.3
		c-0.7,0.1-1.4,0.1-2,0.3C89.8,69.7,84.3,70.5,79.2,71.7z"/>
	<path class="st17" d="M35.8,90.1c0.4,3.7,3.2,4.7,6.4,5.3c1.2,0.2,2.4,0.4,3.7,0.6c0-3.6,0-7,0-10.5c0.3,0,0.7,0,1,0
		c0.2,3.6,0.4,7.1,0.6,10.7c2.5,0.3,4.9,0.5,7.4,0.6c0-1.9,0-3.8,0-5.7c1.8-0.5,3.3-1,5.2-1.6c0-0.4,0-0.8,0-1.3c-0.4,0-0.7,0-1.1,0
		c-1.4-0.2-3.1-0.2-3.4-2c-0.2-1.5,1.2-2,2.4-2.7c0.7-0.4,1.3-0.7,2-1.1c0-2.1,0-4.1,0-6.3C53.3,77.9,46.7,80,40.8,84
		C38.4,85.7,35.4,86.5,35.8,90.1z"/>
	<path class="st17" d="M126.1,69.8c0,0.8,0,1.7,0,2.5c0.5,0,1.1,0.1,1.6,0.1c0-0.6,0-1.1,0-1.7c4.7,0,9.1,0,13.5,0
		c-2.5-0.1-5-0.2-7.5-0.4C131.2,70.1,128.7,69.9,126.1,69.8z"/>
	<path class="st18" d="M183,114c0.6,1.1,1.1,2.2,1.5,3.4c1.2,0.1,2.2,0.2,3.4,0.3c0-2.9,0-5.8,0-8.6c-1.8-4-3.2-8.1-4.9-12.2
		C183,102.5,183,108.2,183,114z"/>
	<path class="st19" d="M126.1,78.9c0.5,0.1,1.1,0.2,1.6,0.3c0-2.3,0-4.5,0-6.8c-0.5,0-1.1-0.1-1.6-0.1
		C126.1,74.5,126.1,76.7,126.1,78.9z"/>
	<path class="st7" d="M227.3,17.3c0.3,1.2,1.3,1.9,2.4,1.4c4.8-2.1,8.2,1.4,12,2.9c2.3,0.9,7-1.5,7.1-3.9c0-1-0.8-1.3-1.5-1.6
		c-1.1-0.6-2.3-1.2-1.9-2.6c0.9-3.2-1.2-3.4-3.3-3.1c-3.3,0.4-4.9-1.1-5.6-4c-0.3,0-0.5,0-0.8,0c-2.1,1.5-3.9,0.7-5.5-0.8l0,0
		c-1.8-0.1-3.7,0.6-5.5,0c0,0,0,0,0,0c-0.7-0.1-1.4-0.1-2.1-0.2c-0.1,0-0.3,0-0.4,0c-1.5-0.1-2.9-0.3-4.4-0.4
		c-0.8,0-1.5-0.1-2.3-0.1c-1.6,0-3.8,0.3-3.8,2.4c0,1.9,2.1,1.3,3.4,1.5c3.2,0.1,6.3,0.4,9.5,0.3c1.2,0,2.6-0.4,2.7,1.2
		c0.1,1.5-1.3,2-2.4,1.9c-1.8-0.1-3-0.2-1.9,2.1l0,0c0.8,0.3,1.6,0.5,2.4,0.8C227,15.2,227.1,16.3,227.3,17.3z"/>
	<path class="st6" d="M239.4,27.3c1.3-1.6,2.3-1.8,4.3-1.5c4.6,0.8,10.9-5.1,10.4-9.3c0-0.3-0.4-0.6-0.7-0.9
		c-4.5-5.1-10.8-6.8-16.8-9.2v0c0.7,2.9,2.3,4.4,5.6,4c2-0.3,4.1-0.1,3.3,3.1c-0.4,1.4,0.8,2,1.9,2.6c0.7,0.4,1.5,0.6,1.5,1.6
		c-0.1,2.4-4.8,4.8-7.1,3.9c-3.8-1.5-7.2-5-12-2.9c-1.1,0.5-2.1-0.2-2.4-1.4c-0.3-1-0.4-2.1-1.7-2.3c0.8,2.2-4.4,3-1.5,5.2
		c1.5,1.1,4.3,0.7,6.5,0.9c0.4,0,0.7-0.3,1.1-0.3c1.7-0.2,3.3,0.4,3.8,2c0.6,2-1.2,2.2-2.5,2.8c-2.4,1-3.7,2.2-1.1,4.4l0,0
		C234.8,30.3,237.5,29.6,239.4,27.3z"/>
	<path class="st3" d="M242.2,2.7c0,1.3,0.4,2.3,1.6,2.9c4.3,2.2,8.4,4.5,13.4,4.8c-3.3-1.8-6.6-3.6-10-5.3c-0.9-0.5-2.6-0.8-2.3-1.7
		c0.3-1.1,0.4-2.2,0.4-3.3h-3C242.2,0.9,242.2,1.8,242.2,2.7z"/>
	<path class="st6" d="M225.1,12.2c1.1,0.1,2.6-0.4,2.4-1.9c-0.2-1.6-1.5-1.2-2.7-1.2c-3.2,0-6.3-0.2-9.5-0.3
		c1.1,4.1,4.7,4.4,7.9,5.5l0,0C222.1,11.9,223.3,12,225.1,12.2z"/>
	<path class="st3" d="M250.9,52.7c2.2,0.1,4.5-1.3,6.7-2.1c1.2-0.4,2-1.1,1.2-2.7c-2.1-4-4.1-4.9-8.6-4.2
		c-5.5,0.9-11.1,1.5-16.6-0.6c-1.1-0.5-2-0.3-2.7,0.8c-2.3,3.9-5.8,2.6-9.1,2.5c0.5,2.8,0.9,5.6,1.4,8.4c1.2-0.2,2.3-0.3,3.5-0.4
		C234.8,53.9,242.7,52.4,250.9,52.7z M230.5,50.8c0,1.4-0.9,1.2-1.6,1.2c-0.6,0-1.3-0.1-1.8-1.1C228.3,50.3,229.4,50.5,230.5,50.8z"
		/>
	<path class="st3" d="M243.9,34c2.9-3.8,6.1-6.2,11-6.5c2.4-0.1,3.6-1.9,1.9-4.1c-1.1-1.5-0.9-2.9-0.5-4.4c-0.9,0.5-1.8,1.3-1.5,2.1
		c2.5,5.8-1.3,5.9-5.2,6.1c-0.5,0-1,0.4-1.4,0.6c-7.1,3.7-14.9,5.5-22.4,7.9c-5.8,1.9-9.8,6.2-15,8.5c3.4,0,6.5,0,10.3,0
		c1.5-1.3,2.6-3,5.2-3.2C232.7,40.3,239.6,39.9,243.9,34z"/>
	<path class="st3" d="M263.2,12.5c-0.7-1.8-2.3-1.4-3.7-1.4c1.4,0.9,3.5,1.5,2.4,3.9C262.8,14.5,263.6,13.8,263.2,12.5z"/>
	<path class="st5" d="M235.8,6.4c-1.8-0.5-3.6-1-5.5-0.8l0,0C232,7.1,233.8,7.9,235.8,6.4z"/>
	<path class="st20" d="M10.5,89.5c6.2-3.3,12.3-7,18.7-9.9c7.6-3.5,15.5-5.4,23.6-7c2.5-0.5,4.9-1.1,7.2-1.9c0-1.3,0-2.6,0-3.9
		c2.7-0.2,5.1-0.5,7.9-0.7c0.4-0.4,0.8-0.8,1.1-1.2c0-5.5,0-10.8,0-16.3c-1.7-1.2-3.5-2.2-5.3-3.3c-2.2-1.4-3.4-3.1-3.7-5.7
		c-0.4-4.5-2-8.6-5.1-12.1c-3.4-3.9-7.5-4.5-12.1-3.5c-1.5,0.3-2.9,0.6-4.4,0.8c-0.2,0-0.4,0-0.5,0c-1.3,0.1-2.6,0-3.9-0.4
		c0,0,0,0,0,0h0c0,0,0,0,0,0c0,0,0,0,0,0c-5.4,2.4-10.8,4.5-15.7,7.9c0.4,0.7,1.4,1.1,0.5,2.3C14.5,40.5,10.2,46.5,6,52.5
		c-1.3,1.9-3.8,3-6,4.2v33.8C3.3,91.7,7.1,91.3,10.5,89.5z"/>
	<path class="st21" d="M108.3,41.4c0,4.3,0,8.7,0,13.2c2.6,0,4.5,0,7,0c0-3.4,0-6.9,0-10.4c-1.2-0.2-2.4-0.5-3.7-1.2
		C110.5,42.5,109.4,42,108.3,41.4z"/>
	<path class="st21" d="M82.6,27c-0.1-1,0.6-1.4,1.4-1.6c2.7-0.8,5.2-2,8.4-1.2c2.3,0.6,6.3,0.7,6.6-1.9c0.3-2.6-3.6-2.7-5.9-3.2
		c-1.8-0.3-3.5-0.2-5.2,1.2c-1.2,1.1-2.9,1.7-4.5,2.4c-2,0.8-3.3-0.3-4.3-1.8c-1.3-1.9,0.8-2,1.7-2.7c0.8-0.6,1.3-1.2,1.4-2.2
		c-7.5-0.4-15-0.4-22.3,0.8c-8.9,1.5-17.7,3.6-25.8,7.7c0,0,0,0,0,0h0c1.3,0.4,2.6,0.5,3.9,0.4c0.2,0,0.4,0,0.5,0
		c1.5-0.1,2.9-0.4,4.4-0.8c4.6-1,8.7-0.4,12.1,3.5c3.1,3.5,4.7,7.5,5.1,12.1c0.3,2.6,1.5,4.3,3.7,5.7c1.8,1.1,3.6,2.1,5.3,3.3
		c0-2.7,0-5.4,0-8.2c3.6,0,6.6,0,10.1,0c0,9.1,0,18.2,0,27.2c1.4-0.4,2.8-0.9,4.2-1.3c4.7-1.4,9.2-2,13.8-2c0-9.7,0-19.4,0-29.2
		c0.1,0,0.3,0,0.4,0c-4.1-2.9-8-6.2-13.3-6.8C83.4,28.3,82.7,27.9,82.6,27z"/>
	<path class="st21" d="M150.5,49.4c1.3,0.8,1.3-0.8,1.9-1.3c-3.3-3.3-6.2-7-10.3-9.4c-0.5,0.5-0.4,1.5-1.5,1.6
		c-6.1,0.5-12.1,1.9-18.1,3.4c-0.6,0.1-1.2,0.3-1.8,0.4c0,3.4,0,6.7,0,10.2c1.1,0.3,2.1,0.6,3.2,0.9c5.1-0.7,9.8-3.3,14.7-4.8
		C142.5,49.1,146.2,46.8,150.5,49.4z"/>
	<path class="st21" d="M133.8,65.3c-2.5-0.6-5.1-0.8-7.7-1.1c0,1,0,2,0,3.1c4.6,0.4,9.2,0.6,13.9,0.6c3.5,0,7-0.1,10.5,0.1
		c0-0.7,0-1.3,0-2C145,66.1,139.4,66.6,133.8,65.3z"/>
	<path class="st21" d="M10.9,97.1c3.5,0.1,6-1,8.2-3.5c7.1-8.1,16.4-13.2,26.5-15.8c4.9-1.3,9.7-2.7,14.5-4.1c0-1,0-1.9,0-2.9
		c-2.3,0.8-4.8,1.4-7.2,1.9c-8.1,1.7-16,3.6-23.6,7c-6.5,2.9-12.5,6.6-18.7,9.9C7.1,91.3,3.3,91.7,0,90.6v3.9v0.3
		C3.3,96.2,6.9,97,10.9,97.1z"/>
	<path class="st21" d="M69.1,66c0-0.4,0-0.7,0-1.1c-0.4,0.4-0.7,0.8-1.1,1.2C68.3,66,68.7,66,69.1,66z"/>
	<path class="st22" d="M0.1,127.9c1.6-0.5,2.8-1.4,3.4-3c0.9-2.2,2.4-3.5,4.9-3.9c-1.3-1.7-2.9-2-4.3-2.8c-2.2-1.3-2.7-2.5,0.1-3.6
		c2.9-1.2,2.9-3,2-5.7c-1.1-3.3-4.1-4.3-6.3-6.2V128C0,127.9,0.1,127.9,0.1,127.9z"/>
	<path class="st23" d="M140.5,40.3c1.1-0.1,1-1.1,1.5-1.6c-7.5-6.5-16-11.3-25.2-15c-11.1-4.4-22.6-7.5-34.7-7.8l0,0
		c-0.1,1-0.6,1.6-1.4,2.2c-0.9,0.6-3,0.7-1.7,2.7c1,1.5,2.4,2.6,4.3,1.8c1.6-0.6,3.3-1.3,4.5-2.4c1.6-1.4,3.4-1.5,5.2-1.2
		c2.3,0.5,6.2,0.6,5.9,3.2c-0.3,2.6-4.3,2.5-6.6,1.9c-3.1-0.8-5.7,0.4-8.4,1.2c-0.8,0.2-1.5,0.7-1.4,1.6c0.1,0.9,0.9,1.3,1.7,1.4
		c5.3,0.6,9.2,4,13.3,6.8c4.4,0,7.3,0,10.8,0c0,2.1,0,4.2,0,6.2c1.1,0.6,2.2,1.1,3.3,1.7c1.3,0.6,2.5,1,3.7,1.2c0-2.8,0-5.7,0-8.7
		c2,0,3.5,0,5.4,0c0,2.8,0,5.7,0,8.5c0.6-0.1,1.2-0.2,1.8-0.4C128.4,42.2,134.4,40.8,140.5,40.3z"/>
	<path class="st24" d="M152.3,48.1c-0.6,0.5-0.6,2.1-1.9,1.3c-4.2-2.6-8-0.4-11.9,0.8c-4.9,1.5-9.6,4.1-14.7,4.8
		c0.7,0.2,1.4,0.4,2.3,0.6c0,2.8,0,5.7,0,8.5c2.6,0.3,5.2,0.5,7.7,1.1c5.6,1.3,11.2,0.8,16.7,0.7c0-4.8,0-9.4,0-14.3
		c1.8,0,3.5,0,5.2,0C154.6,50.4,153.5,49.3,152.3,48.1z"/>
	<path class="st25" d="M6,52.5c4.2-6,8.5-12,12.9-17.9c0.9-1.2-0.1-1.6-0.5-2.3C11.5,36.6,5.4,41.5,0,47.1v9.7
		C2.2,55.6,4.7,54.4,6,52.5z"/>
	<path class="st26" d="M47.9,102.7c0.1,2.2,0.3,4.4,0.4,6.6c2.2,0,4.3,0,6.6,0c0-2.6,0-5.1,0-7.7c-0.3,0-0.7,0.1-1,0.1
		C51.8,102,49.8,102.2,47.9,102.7z"/>
	<path class="st26" d="M83.4,98.7c-1.4,0.1-2.8,0.2-4.2,0.3c0,1.4,0,2.9,0,4.3c0.9-0.1,1.8-0.1,2.8-0.1c4.6,0.2,9.2,0,13.8,0.2
		c0.5,0,1,0.1,1.5,0.1c0-1.3,0-2.5,0-3.8c-0.6-0.1-1.1-0.1-1.7-0.2C91.6,98.9,87.6,98.4,83.4,98.7z"/>
	<path class="st26" d="M126.1,103.8c0.5,0,1.1,0,1.6,0.1c0-3.5,0-7.1,0-10.7c-0.5,0-1.1,0.1-1.6,0.2
		C126.1,96.8,126.1,100.3,126.1,103.8z"/>
	<path class="st27" d="M6.9,141.5C6.9,141.5,6.9,141.5,6.9,141.5c0,0-0.1,0-0.1,0C6.8,141.5,6.8,141.5,6.9,141.5z"/>
	<path class="st28" d="M55.7,86.3c0.2,1.8,1.9,1.8,3.4,2c0.3,0,0.7,0,1.1,0c0-1.9,0-3.9,0-5.8c-0.7,0.3-1.3,0.7-2,1.1
		C56.9,84.3,55.5,84.8,55.7,86.3z"/>
	<path class="st28" d="M79.2,77.5c0,0.9,0,1.8,0,2.7C79.6,79.3,79.7,78.4,79.2,77.5z"/>
	<path class="st29" d="M183,117.2c0.5,0,1,0.1,1.5,0.1c-0.4-1.2-0.8-2.4-1.5-3.4C183,115.1,183,116.1,183,117.2z"/>
	<path class="st9" d="M228.9,52c0.7,0,1.6,0.2,1.6-1.2c-1.1-0.3-2.2-0.6-3.4,0.1C227.6,52,228.2,52.1,228.9,52z"/>
	<path class="st30" d="M81.9,103.3c-0.9,0-1.9,0-2.8,0.1c0,2.5,0,5,0,7.6c2.7,0.2,5,0.4,7.9,0.6c0,0.7,0,1.3,0,2c0,2.3,0,4.7,0,7h10
		c0-2.3,0-4.7,0-7c0-3.3,0-6.7,0-10c-0.5,0-1-0.1-1.5-0.1C91.1,103.3,86.5,103.5,81.9,103.3z"/>
	<path class="st30" d="M126.1,113.6c0.5,0,1.1,0,1.6,0.1c0-3.3,0-6.6,0-9.8c-0.5,0-1.1,0-1.6-0.1
		C126.1,107.1,126.1,110.4,126.1,113.6z"/>
	<rect x="99.7" y="41.4" class="st31" width="1" height="1"/>
	<rect x="101.2" y="41.4" class="st31" width="1" height="1"/>
	<rect x="99.7" y="43" class="st31" width="1" height="1"/>
	<rect x="99.7" y="47.5" class="st31" width="1" height="1"/>
	<rect x="99.7" y="49.1" class="st31" width="1" height="1"/>
	<rect x="99.7" y="50.6" class="st31" width="1" height="1"/>
	<rect x="101.2" y="50.6" class="st31" width="1" height="1"/>
	<rect x="101.2" y="53.6" class="st31" width="1" height="1"/>
	<rect x="101.2" y="55.1" class="st31" width="1" height="1"/>
	<rect x="99.7" y="59.6" class="st31" width="1" height="1"/>
	<rect x="99.7" y="62.7" class="st31" width="1" height="1"/>
	<rect x="101.2" y="62.7" class="st31" width="1" height="1"/>
	<rect x="99.7" y="70.3" class="st31" width="1" height="1"/>
	<rect x="101.2" y="70.3" class="st31" width="1" height="1"/>
	<rect x="104.4" y="38.4" class="st31" width="1" height="1"/>
	<rect x="104.4" y="41.4" class="st31" width="1" height="1"/>
	<rect x="105.8" y="44.5" class="st31" width="1" height="1"/>
	<rect x="104.4" y="46" class="st31" width="1" height="1"/>
	<rect x="104.4" y="47.5" class="st31" width="1" height="1"/>
	<rect x="105.8" y="50.6" class="st31" width="1" height="1"/>
	<rect x="104.4" y="52.1" class="st31" width="1" height="1"/>
	<rect x="105.8" y="52.1" class="st31" width="1" height="1"/>
	<rect x="104.4" y="55.1" class="st31" width="1" height="1"/>
	<rect x="104.4" y="56.6" class="st31" width="1" height="1"/>
	<rect x="104.4" y="61.2" class="st31" width="1" height="1"/>
	<rect x="105.8" y="62.7" class="st31" width="1" height="1"/>
	<rect x="104.4" y="65.7" class="st31" width="1" height="1"/>
	<rect x="104.4" y="68.8" class="st31" width="1" height="1"/>
	<rect x="99.7" y="78.2" class="st31" width="1" height="1"/>
	<rect x="99.7" y="82.7" class="st31" width="1" height="1"/>
	<rect x="101.2" y="82.7" class="st31" width="1" height="1"/>
	<rect x="99.7" y="84.2" class="st31" width="1" height="1"/>
	<rect x="99.7" y="88.7" class="st31" width="1" height="1"/>
	<rect x="99.7" y="91.9" class="st31" width="1" height="1"/>
	<rect x="101.2" y="91.9" class="st31" width="1" height="1"/>
	<rect x="101.2" y="94.9" class="st31" width="1" height="1"/>
	<rect x="101.2" y="96.4" class="st31" width="1" height="1"/>
	<rect x="99.7" y="100.9" class="st31" width="1" height="1"/>
	<rect x="99.7" y="103.9" class="st31" width="1" height="1"/>
	<rect x="101.2" y="103.9" class="st31" width="1" height="1"/>
	<rect x="99.7" y="111.6" class="st31" width="1" height="1"/>
	<rect x="101.2" y="111.6" class="st31" width="1" height="1"/>
	<rect x="104.4" y="78.2" class="st31" width="1" height="1"/>
	<rect x="104.4" y="79.7" class="st31" width="1" height="1"/>
	<rect x="104.4" y="82.7" class="st31" width="1" height="1"/>
	<rect x="105.8" y="85.7" class="st31" width="1" height="1"/>
	<rect x="104.4" y="87.2" class="st31" width="1" height="1"/>
	<rect x="104.4" y="88.7" class="st31" width="1" height="1"/>
	<rect x="105.8" y="91.9" class="st31" width="1" height="1"/>
	<rect x="104.4" y="93.4" class="st31" width="1" height="1"/>
	<rect x="104.4" y="96.4" class="st31" width="1" height="1"/>
	<rect x="104.4" y="97.9" class="st31" width="1" height="1"/>
	<rect x="104.4" y="102.4" class="st31" width="1" height="1"/>
	<rect x="105.8" y="103.9" class="st31" width="1" height="1"/>
	<rect x="104.4" y="106.9" class="st31" width="1" height="1"/>
	<rect x="104.4" y="110.1" class="st31" width="1" height="1"/>
	<rect x="104.4" y="111.6" class="st31" width="1" height="1"/>
	<rect x="131.8" y="74.2" class="st31" width="1" height="1"/>
	<rect x="131.8" y="78.7" class="st31" width="1" height="1"/>
	<rect x="133.2" y="78.7" class="st31" width="1" height="1"/>
	<rect x="131.8" y="80.2" class="st31" width="1" height="1"/>
	<rect x="131.8" y="84.7" class="st31" width="1" height="1"/>
	<rect x="131.8" y="86.4" class="st31" width="1" height="1"/>
	<rect x="131.8" y="87.9" class="st31" width="1" height="1"/>
	<rect x="133.2" y="87.9" class="st31" width="1" height="1"/>
	<rect x="133.2" y="90.9" class="st31" width="1" height="1"/>
	<rect x="133.2" y="92.4" class="st31" width="1" height="1"/>
	<rect x="131.8" y="96.9" class="st31" width="1" height="1"/>
	<rect x="131.8" y="100" class="st31" width="1" height="1"/>
	<rect x="133.2" y="100" class="st31" width="1" height="1"/>
	<rect x="131.8" y="107.6" class="st31" width="1" height="1"/>
	<rect x="133.2" y="107.6" class="st31" width="1" height="1"/>
	<rect x="136.4" y="74.2" class="st31" width="1" height="1"/>
	<rect x="136.4" y="75.7" class="st31" width="1" height="1"/>
	<rect x="136.4" y="78.7" class="st31" width="1" height="1"/>
	<rect x="137.9" y="81.7" class="st31" width="1" height="1"/>
	<rect x="136.4" y="83.2" class="st31" width="1" height="1"/>
	<rect x="136.4" y="84.7" class="st31" width="1" height="1"/>
	<rect x="137.9" y="87.9" class="st31" width="1" height="1"/>
	<rect x="136.4" y="89.4" class="st31" width="1" height="1"/>
	<rect x="137.9" y="89.4" class="st31" width="1" height="1"/>
	<rect x="136.4" y="92.4" class="st31" width="1" height="1"/>
	<rect x="136.4" y="93.9" class="st31" width="1" height="1"/>
	<rect x="136.4" y="98.5" class="st31" width="1" height="1"/>
	<rect x="137.9" y="100" class="st31" width="1" height="1"/>
	<rect x="136.4" y="103" class="st31" width="1" height="1"/>
	<rect x="136.4" y="106.1" class="st31" width="1" height="1"/>
	<rect x="136.4" y="107.6" class="st31" width="1" height="1"/>
	<rect x="131.8" y="111.6" class="st31" width="1" height="1"/>
	<rect x="131.8" y="116.1" class="st31" width="1" height="1"/>
	<rect x="133.2" y="116.1" class="st31" width="1" height="1"/>
	<rect x="131.8" y="117.7" class="st31" width="1" height="1"/>
	<rect x="136.4" y="111.6" class="st31" width="1" height="1"/>
	<rect x="136.4" y="113.1" class="st31" width="1" height="1"/>
	<rect x="136.4" y="116.1" class="st31" width="1" height="1"/>
	<rect x="137.9" y="119.2" class="st31" width="1" height="1"/>
	<rect x="99.7" y="115.1" class="st31" width="1" height="1"/>
	<rect x="99.7" y="119.6" class="st31" width="1" height="1"/>
	<rect x="101.2" y="119.6" class="st31" width="1" height="1"/>
	<rect x="99.7" y="121.2" class="st31" width="1" height="1"/>
	<rect x="104.4" y="115.1" class="st31" width="1" height="1"/>
	<rect x="104.4" y="116.6" class="st31" width="1" height="1"/>
	<rect x="104.4" y="119.6" class="st31" width="1" height="1"/>
	<rect x="105.8" y="122.7" class="st31" width="1" height="1"/>
	<rect x="104.4" y="124.2" class="st31" width="1" height="1"/>
	<rect x="153.7" y="54.8" class="st31" width="1" height="1"/>
	<rect x="153.7" y="57.8" class="st31" width="1" height="1"/>
	<rect x="155.2" y="59.3" class="st31" width="1" height="1"/>
	<rect x="155.2" y="57.8" class="st31" width="1" height="1"/>
	<rect x="153.7" y="60.9" class="st31" width="1" height="1"/>
	<rect x="153.7" y="62.4" class="st31" width="1" height="1"/>
	<rect x="155.2" y="62.4" class="st31" width="1" height="1"/>
	<rect x="153.7" y="65.4" class="st31" width="1" height="1"/>
	<rect x="155.2" y="65.4" class="st31" width="1" height="1"/>
	<rect x="155.2" y="63.9" class="st31" width="1" height="1"/>
	<rect x="153.7" y="68.5" class="st31" width="1" height="1"/>
	<rect x="155.2" y="67" class="st31" width="1" height="1"/>
	<rect x="153.7" y="70" class="st31" width="1" height="1"/>
	<rect x="155.2" y="70" class="st31" width="1" height="1"/>
	<rect x="153.7" y="73" class="st31" width="1" height="1"/>
	<rect x="153.7" y="74.5" class="st31" width="1" height="1"/>
	<rect x="155.2" y="74.5" class="st31" width="1" height="1"/>
	<rect x="153.7" y="76" class="st31" width="1" height="1"/>
	<rect x="153.7" y="77.5" class="st31" width="1" height="1"/>
	<rect x="153.7" y="80.6" class="st31" width="1" height="1"/>
	<rect x="155.2" y="80.6" class="st31" width="1" height="1"/>
	<rect x="155.2" y="79.1" class="st31" width="1" height="1"/>
	<rect x="153.7" y="82.1" class="st31" width="1" height="1"/>
	<rect x="153.7" y="83.6" class="st31" width="1" height="1"/>
	<rect x="155.2" y="83.6" class="st31" width="1" height="1"/>
	<rect x="153.7" y="86.7" class="st31" width="1" height="1"/>
	<rect x="155.2" y="86.7" class="st31" width="1" height="1"/>
	<rect x="153.7" y="88.2" class="st31" width="1" height="1"/>
	<rect x="176.1" y="80.5" class="st31" width="1" height="1"/>
	<rect x="176.1" y="82" class="st31" width="1" height="1"/>
	<rect x="176.1" y="85" class="st31" width="1" height="1"/>
	<rect x="177.6" y="88.1" class="st31" width="1" height="1"/>
	<rect x="176.1" y="89.6" class="st31" width="1" height="1"/>
	<rect x="176.1" y="91.1" class="st31" width="1" height="1"/>
	<rect x="177.6" y="94.2" class="st31" width="1" height="1"/>
	<rect x="176.1" y="95.7" class="st31" width="1" height="1"/>
	<rect x="177.6" y="95.7" class="st31" width="1" height="1"/>
	<rect x="176.1" y="98.7" class="st31" width="1" height="1"/>
	<rect x="176.1" y="100.2" class="st31" width="1" height="1"/>
	<rect x="176.1" y="104.8" class="st31" width="1" height="1"/>
	<rect x="177.6" y="106.3" class="st31" width="1" height="1"/>
	<rect x="176.1" y="109.3" class="st31" width="1" height="1"/>
	<rect x="176.1" y="112.4" class="st31" width="1" height="1"/>
	<rect x="176.1" y="113.9" class="st31" width="1" height="1"/>
	<rect x="196.4" y="73.7" class="st31" width="1" height="1"/>
	<rect x="196.4" y="75.3" class="st31" width="1" height="1"/>
	<rect x="196.4" y="76.8" class="st31" width="1" height="1"/>
	<rect x="197.9" y="78.3" class="st31" width="1" height="1"/>
	<rect x="197.9" y="76.8" class="st31" width="1" height="1"/>
	<rect x="196.4" y="79.8" class="st31" width="1" height="1"/>
	<rect x="197.9" y="84.3" class="st31" width="1" height="1"/>
	<rect x="196.4" y="86" class="st31" width="1" height="1"/>
	<rect x="196.4" y="87.5" class="st31" width="1" height="1"/>
	<rect x="196.4" y="90.5" class="st31" width="1" height="1"/>
	<rect x="197.9" y="89" class="st31" width="1" height="1"/>
	<rect x="196.4" y="93.5" class="st31" width="1" height="1"/>
	<rect x="196.4" y="95" class="st31" width="1" height="1"/>
	<rect x="196.4" y="96.5" class="st31" width="1" height="1"/>
	<rect x="197.9" y="96.5" class="st31" width="1" height="1"/>
	<rect x="196.4" y="99.5" class="st31" width="1" height="1"/>
	<rect x="196.4" y="101" class="st31" width="1" height="1"/>
	<rect x="197.9" y="102.5" class="st31" width="1" height="1"/>
	<rect x="197.9" y="101" class="st31" width="1" height="1"/>
	<rect x="196.4" y="104.2" class="st31" width="1" height="1"/>
	<rect x="196.4" y="107.2" class="st31" width="1" height="1"/>
	<rect x="197.9" y="107.2" class="st31" width="1" height="1"/>
	<rect x="192.1" y="73.7" class="st31" width="1" height="1"/>
	<rect x="192.1" y="75.3" class="st31" width="1" height="1"/>
	<rect x="193.6" y="75.3" class="st31" width="1" height="1"/>
	<rect x="192.1" y="78.3" class="st31" width="1" height="1"/>
	<rect x="193.6" y="78.3" class="st31" width="1" height="1"/>
	<rect x="192.1" y="79.8" class="st31" width="1" height="1"/>
	<rect x="192.1" y="81.3" class="st31" width="1" height="1"/>
	<rect x="193.6" y="81.3" class="st31" width="1" height="1"/>
	<rect x="192.1" y="82.8" class="st31" width="1" height="1"/>
	<rect x="192.1" y="87.5" class="st31" width="1" height="1"/>
	<rect x="192.1" y="89" class="st31" width="1" height="1"/>
	<rect x="192.1" y="90.5" class="st31" width="1" height="1"/>
	<rect x="193.6" y="90.5" class="st31" width="1" height="1"/>
	<rect x="192.1" y="93.5" class="st31" width="1" height="1"/>
	<rect x="193.6" y="93.5" class="st31" width="1" height="1"/>
	<rect x="192.1" y="96.5" class="st31" width="1" height="1"/>
	<rect x="193.6" y="95" class="st31" width="1" height="1"/>
	<rect x="192.1" y="98" class="st31" width="1" height="1"/>
	<rect x="192.1" y="99.5" class="st31" width="1" height="1"/>
	<rect x="193.6" y="98" class="st31" width="1" height="1"/>
	<rect x="192.1" y="101" class="st31" width="1" height="1"/>
	<rect x="192.1" y="102.5" class="st31" width="1" height="1"/>
	<rect x="193.6" y="102.5" class="st31" width="1" height="1"/>
	<rect x="193.6" y="105.7" class="st31" width="1" height="1"/>
	<rect x="192.1" y="107.2" class="st31" width="1" height="1"/>
	<rect x="192.8" y="115.1" class="st31" width="1" height="1"/>
	<rect x="192.8" y="119.6" class="st31" width="1" height="1"/>
	<rect x="194.3" y="119.6" class="st31" width="1" height="1"/>
	<rect x="192.8" y="121.2" class="st31" width="1" height="1"/>
	<rect x="192.8" y="125.7" class="st31" width="1" height="1"/>
	<rect x="192.8" y="127.3" class="st31" width="1" height="1"/>
	<rect x="192.8" y="128.8" class="st31" width="1" height="1"/>
	<rect x="194.3" y="128.8" class="st31" width="1" height="1"/>
	<rect x="194.3" y="131.8" class="st31" width="1" height="1"/>
	<rect x="197.5" y="115.1" class="st31" width="1" height="1"/>
	<rect x="197.5" y="116.6" class="st31" width="1" height="1"/>
	<rect x="197.5" y="119.6" class="st31" width="1" height="1"/>
	<rect x="199" y="122.7" class="st31" width="1" height="1"/>
	<rect x="197.5" y="124.2" class="st31" width="1" height="1"/>
	<rect x="197.5" y="125.7" class="st31" width="1" height="1"/>
	<rect x="199" y="128.8" class="st31" width="1" height="1"/>
	<rect x="197.5" y="130.3" class="st31" width="1" height="1"/>
	<rect x="199" y="130.3" class="st31" width="1" height="1"/>
	<rect x="233.8" y="89.9" class="st31" width="1" height="1"/>
	<rect x="233.8" y="94.4" class="st31" width="1" height="1"/>
	<rect x="235.3" y="94.4" class="st31" width="1" height="1"/>
	<rect x="233.8" y="96" class="st31" width="1" height="1"/>
	<rect x="233.8" y="100.5" class="st31" width="1" height="1"/>
	<rect x="233.8" y="102.1" class="st31" width="1" height="1"/>
	<rect x="233.8" y="103.6" class="st31" width="1" height="1"/>
	<rect x="235.3" y="103.6" class="st31" width="1" height="1"/>
	<rect x="235.3" y="106.6" class="st31" width="1" height="1"/>
	<rect x="235.3" y="108.1" class="st31" width="1" height="1"/>
	<rect x="233.8" y="112.6" class="st31" width="1" height="1"/>
	<rect x="233.8" y="115.7" class="st31" width="1" height="1"/>
	<rect x="235.3" y="115.7" class="st31" width="1" height="1"/>
	<rect x="233.8" y="123.3" class="st31" width="1" height="1"/>
	<rect x="235.3" y="123.3" class="st31" width="1" height="1"/>
	<rect x="238.5" y="89.9" class="st31" width="1" height="1"/>
	<rect x="238.5" y="91.4" class="st31" width="1" height="1"/>
	<rect x="238.5" y="94.4" class="st31" width="1" height="1"/>
	<rect x="240" y="97.5" class="st31" width="1" height="1"/>
	<rect x="238.5" y="99" class="st31" width="1" height="1"/>
	<rect x="238.5" y="100.5" class="st31" width="1" height="1"/>
	<rect x="240" y="103.6" class="st31" width="1" height="1"/>
	<rect x="238.5" y="105.1" class="st31" width="1" height="1"/>
	<rect x="240" y="105.1" class="st31" width="1" height="1"/>
	<rect x="238.5" y="108.1" class="st31" width="1" height="1"/>
	<rect x="238.5" y="109.6" class="st31" width="1" height="1"/>
	<rect x="238.5" y="114.2" class="st31" width="1" height="1"/>
	<rect x="240" y="115.7" class="st31" width="1" height="1"/>
	<rect x="238.5" y="118.7" class="st31" width="1" height="1"/>
	<rect x="238.5" y="121.8" class="st31" width="1" height="1"/>
	<rect x="238.5" y="123.3" class="st31" width="1" height="1"/>
	<rect x="238.6" y="129.8" class="st31" width="1" height="1"/>
	<rect x="238.6" y="131.3" class="st31" width="1" height="1"/>
	<rect x="238.6" y="132.8" class="st31" width="1" height="1"/>
	<rect x="240.1" y="134.3" class="st31" width="1" height="1"/>
	<rect x="240.1" y="132.8" class="st31" width="1" height="1"/>
	<rect x="238.6" y="135.9" class="st31" width="1" height="1"/>
	<rect x="240.1" y="140.4" class="st31" width="1" height="1"/>
	<rect x="238.6" y="142" class="st31" width="1" height="1"/>
	<rect x="238.6" y="143.5" class="st31" width="1" height="1"/>
	<rect x="238.6" y="146.5" class="st31" width="1" height="1"/>
	<rect x="238.6" y="149.5" class="st31" width="1" height="1"/>
	<rect x="234.3" y="129.8" class="st31" width="1" height="1"/>
	<rect x="234.3" y="131.3" class="st31" width="1" height="1"/>
	<rect x="235.8" y="131.3" class="st31" width="1" height="1"/>
	<rect x="234.3" y="134.3" class="st31" width="1" height="1"/>
	<rect x="235.8" y="137.4" class="st31" width="1" height="1"/>
	<rect x="234.3" y="138.9" class="st31" width="1" height="1"/>
	<rect x="63.1" y="69.7" class="st31" width="1" height="1"/>
	<rect x="63.1" y="74.2" class="st31" width="1" height="1"/>
	<rect x="64.6" y="74.2" class="st31" width="1" height="1"/>
	<rect x="63.1" y="75.7" class="st31" width="1" height="1"/>
	<rect x="63.1" y="80.2" class="st31" width="1" height="1"/>
	<rect x="63.1" y="81.9" class="st31" width="1" height="1"/>
	<rect x="63.1" y="83.4" class="st31" width="1" height="1"/>
	<rect x="64.6" y="83.4" class="st31" width="1" height="1"/>
	<rect x="64.6" y="86.4" class="st31" width="1" height="1"/>
	<rect x="64.6" y="87.9" class="st31" width="1" height="1"/>
	<rect x="63.1" y="92.4" class="st31" width="1" height="1"/>
	<rect x="63.1" y="95.5" class="st31" width="1" height="1"/>
	<rect x="64.6" y="95.5" class="st31" width="1" height="1"/>
	<rect x="63.1" y="103.1" class="st31" width="1" height="1"/>
	<rect x="64.6" y="103.1" class="st31" width="1" height="1"/>
	<rect x="67.8" y="69.7" class="st31" width="1" height="1"/>
	<rect x="67.8" y="71.2" class="st31" width="1" height="1"/>
	<rect x="67.8" y="74.2" class="st31" width="1" height="1"/>
	<rect x="69.3" y="77.2" class="st31" width="1" height="1"/>
	<rect x="67.8" y="78.7" class="st31" width="1" height="1"/>
	<rect x="67.8" y="80.2" class="st31" width="1" height="1"/>
	<rect x="69.3" y="83.4" class="st31" width="1" height="1"/>
	<rect x="67.8" y="84.9" class="st31" width="1" height="1"/>
	<rect x="69.3" y="84.9" class="st31" width="1" height="1"/>
	<rect x="67.8" y="87.9" class="st31" width="1" height="1"/>
	<rect x="67.8" y="89.4" class="st31" width="1" height="1"/>
	<rect x="67.8" y="94" class="st31" width="1" height="1"/>
	<rect x="69.3" y="95.5" class="st31" width="1" height="1"/>
	<rect x="67.8" y="98.5" class="st31" width="1" height="1"/>
	<rect x="67.8" y="101.6" class="st31" width="1" height="1"/>
	<rect x="67.8" y="103.1" class="st31" width="1" height="1"/>
	<rect x="120.6" y="60.9" class="st31" width="1" height="1"/>
	<rect x="120.6" y="63.9" class="st31" width="1" height="1"/>
	<rect x="122.1" y="65.4" class="st31" width="1" height="1"/>
	<rect x="122.1" y="63.9" class="st31" width="1" height="1"/>
	<rect x="120.6" y="67" class="st31" width="1" height="1"/>
	<rect x="120.6" y="68.5" class="st31" width="1" height="1"/>
	<rect x="122.1" y="68.5" class="st31" width="1" height="1"/>
	<rect x="120.6" y="71.5" class="st31" width="1" height="1"/>
	<rect x="122.1" y="71.5" class="st31" width="1" height="1"/>
	<rect x="122.1" y="70" class="st31" width="1" height="1"/>
	<rect x="120.6" y="74.6" class="st31" width="1" height="1"/>
	<rect x="122.1" y="73.1" class="st31" width="1" height="1"/>
	<rect x="120.6" y="76.1" class="st31" width="1" height="1"/>
	<rect x="122.1" y="76.1" class="st31" width="1" height="1"/>
	<rect x="120.6" y="79.1" class="st31" width="1" height="1"/>
	<rect x="120.6" y="80.6" class="st31" width="1" height="1"/>
	<rect x="122.1" y="80.6" class="st31" width="1" height="1"/>
	<rect x="120.6" y="82.1" class="st31" width="1" height="1"/>
	<rect x="120.6" y="83.6" class="st31" width="1" height="1"/>
	<rect x="120.6" y="86.7" class="st31" width="1" height="1"/>
	<rect x="122.1" y="86.7" class="st31" width="1" height="1"/>
	<rect x="122.1" y="85.2" class="st31" width="1" height="1"/>
	<rect x="120.6" y="88.2" class="st31" width="1" height="1"/>
	<rect x="120.6" y="89.7" class="st31" width="1" height="1"/>
	<rect x="122.1" y="89.7" class="st31" width="1" height="1"/>
	<rect x="120.6" y="92.8" class="st31" width="1" height="1"/>
	<rect x="122.1" y="92.8" class="st31" width="1" height="1"/>
	<rect x="120.6" y="94.3" class="st31" width="1" height="1"/>
	<rect x="10.9" y="129.8" class="st31" width="1" height="1"/>
	<rect x="10.9" y="132.8" class="st31" width="1" height="1"/>
	<rect x="12.4" y="134.3" class="st31" width="1" height="1"/>
	<rect x="12.4" y="132.8" class="st31" width="1" height="1"/>
	<rect x="10.9" y="135.9" class="st31" width="1" height="1"/>
	<rect x="10.9" y="137.4" class="st31" width="1" height="1"/>
	<rect x="12.4" y="137.4" class="st31" width="1" height="1"/>
	<rect x="10.9" y="140.4" class="st31" width="1" height="1"/>
	<rect x="12.4" y="140.4" class="st31" width="1" height="1"/>
	<rect x="12.4" y="138.9" class="st31" width="1" height="1"/>
	<rect x="10.9" y="143.5" class="st31" width="1" height="1"/>
	<rect x="12.4" y="142" class="st31" width="1" height="1"/>
	<rect x="10.9" y="145" class="st31" width="1" height="1"/>
	<rect x="12.4" y="145" class="st31" width="1" height="1"/>
	<rect x="10.9" y="148" class="st31" width="1" height="1"/>
	<rect x="10.9" y="149.5" class="st31" width="1" height="1"/>
	<rect x="12.4" y="149.5" class="st31" width="1" height="1"/>
	<rect x="10.9" y="151" class="st31" width="1" height="1"/>
	<rect x="10.9" y="152.5" class="st31" width="1" height="1"/>
	<rect x="10.9" y="155.6" class="st31" width="1" height="1"/>
	<rect x="12.4" y="155.6" class="st31" width="1" height="1"/>
	<rect x="12.4" y="154.1" class="st31" width="1" height="1"/>
	<rect x="10.9" y="157.1" class="st31" width="1" height="1"/>
	<rect x="10.9" y="158.6" class="st31" width="1" height="1"/>
	<rect x="12.4" y="158.6" class="st31" width="1" height="1"/>
	<rect x="10.9" y="161.7" class="st31" width="1" height="1"/>
	<rect x="12.4" y="161.7" class="st31" width="1" height="1"/>
	<rect x="10.9" y="163.2" class="st31" width="1" height="1"/>
	<rect x="21.5" y="118" class="st31" width="1" height="1"/>
	<rect x="21.5" y="122.5" class="st31" width="1" height="1"/>
	<rect x="23" y="122.5" class="st31" width="1" height="1"/>
	<rect x="21.5" y="124.1" class="st31" width="1" height="1"/>
	<rect x="21.5" y="128.6" class="st31" width="1" height="1"/>
	<rect x="21.5" y="130.2" class="st31" width="1" height="1"/>
	<rect x="21.5" y="131.7" class="st31" width="1" height="1"/>
	<rect x="23" y="131.7" class="st31" width="1" height="1"/>
	<rect x="23" y="134.7" class="st31" width="1" height="1"/>
	<rect x="23" y="136.2" class="st31" width="1" height="1"/>
	<rect x="21.5" y="140.7" class="st31" width="1" height="1"/>
	<rect x="21.5" y="143.8" class="st31" width="1" height="1"/>
	<rect x="23" y="143.8" class="st31" width="1" height="1"/>
	<rect x="21.5" y="151.4" class="st31" width="1" height="1"/>
	<rect x="23" y="151.4" class="st31" width="1" height="1"/>
	<rect x="26.2" y="118" class="st31" width="1" height="1"/>
	<rect x="26.2" y="119.5" class="st31" width="1" height="1"/>
	<rect x="26.2" y="122.5" class="st31" width="1" height="1"/>
	<rect x="27.7" y="125.6" class="st31" width="1" height="1"/>
	<rect x="26.2" y="127.1" class="st31" width="1" height="1"/>
	<rect x="26.2" y="128.6" class="st31" width="1" height="1"/>
	<rect x="27.7" y="131.7" class="st31" width="1" height="1"/>
	<rect x="26.2" y="133.2" class="st31" width="1" height="1"/>
	<rect x="27.7" y="133.2" class="st31" width="1" height="1"/>
	<rect x="26.2" y="136.2" class="st31" width="1" height="1"/>
	<rect x="26.2" y="137.7" class="st31" width="1" height="1"/>
	<rect x="26.2" y="142.3" class="st31" width="1" height="1"/>
	<rect x="27.7" y="143.8" class="st31" width="1" height="1"/>
	<rect x="26.2" y="146.8" class="st31" width="1" height="1"/>
	<rect x="26.2" y="149.9" class="st31" width="1" height="1"/>
	<rect x="26.2" y="151.4" class="st31" width="1" height="1"/>
</g>
</svg>
